G04 (created by PCBNEW-RS274X (2011-nov-30)-testing) date Wed 25 Apr 2012 08:27:10 PM CDT*
G01*
G70*
G90*
%MOIN*%
G04 Gerber Fmt 3.4, Leading zero omitted, Abs format*
%FSLAX34Y34*%
G04 APERTURE LIST*
%ADD10C,0.006000*%
%ADD11R,0.144000X0.080000*%
%ADD12R,0.040000X0.080000*%
%ADD13C,0.066000*%
%ADD14R,0.051200X0.031500*%
%ADD15R,0.031500X0.051200*%
%ADD16R,0.140000X0.080000*%
%ADD17R,0.049200X0.023600*%
%ADD18R,0.149200X0.047200*%
%ADD19R,0.055100X0.057100*%
%ADD20R,0.023600X0.039400*%
%ADD21R,0.033500X0.037400*%
G04 APERTURE END LIST*
G54D10*
G54D11*
X04600Y-01500D03*
G54D12*
X04600Y-04100D03*
X05500Y-04100D03*
X03700Y-04100D03*
G54D13*
X13500Y-06300D03*
X12500Y-06300D03*
X10700Y-06300D03*
X09700Y-06300D03*
X07900Y-06300D03*
X06900Y-06300D03*
G54D14*
X03900Y-12160D03*
X03900Y-12632D03*
X03900Y-13105D03*
X03900Y-13577D03*
X03900Y-14050D03*
X03900Y-14522D03*
X03900Y-14995D03*
X03900Y-15467D03*
X03900Y-15940D03*
X03900Y-16412D03*
X03900Y-16884D03*
X03900Y-17357D03*
X09097Y-17357D03*
X09097Y-16884D03*
X09097Y-16412D03*
X09097Y-15940D03*
X09097Y-15467D03*
X09097Y-14995D03*
X09097Y-14522D03*
X09097Y-14050D03*
X09097Y-13577D03*
X09097Y-13105D03*
X09097Y-12632D03*
X09097Y-12160D03*
G54D15*
X08152Y-18459D03*
X07758Y-18459D03*
X07207Y-18459D03*
X06735Y-18459D03*
X06262Y-18459D03*
X05790Y-18459D03*
X05278Y-18459D03*
X04884Y-18459D03*
G54D16*
X00800Y-09200D03*
X00800Y-10200D03*
X00800Y-11200D03*
X00800Y-12200D03*
X00800Y-13200D03*
X00800Y-14200D03*
X00800Y-15200D03*
X00800Y-17200D03*
X00800Y-18200D03*
X00800Y-19200D03*
G54D17*
X12522Y-14784D03*
X12522Y-15217D03*
X12522Y-15650D03*
X12522Y-16083D03*
X12522Y-16517D03*
X12522Y-16950D03*
X12522Y-17383D03*
X12522Y-17816D03*
G54D18*
X13498Y-18269D03*
G54D19*
X13201Y-14144D03*
G54D20*
X13693Y-14056D03*
G54D21*
X14077Y-14420D03*
M02*
