M48
;DRILL file {Pcbnew (2011-nov-30)-testing} date Fri 09 Dec 2011 12:48:24 PM CST
;FORMAT={-:-/ absolute / inch / decimal}
FMAT,2
INCH,TZ
T1C0.025
T2C0.032
%
G90
G05
M72
T1
X0.214Y-1.520
X0.215Y-0.811
X0.217Y-1.759
X0.265Y-1.569
X0.370Y-0.493
X0.478Y-1.773
X0.539Y-1.699
X0.623Y-1.308
X0.628Y-1.665
X0.795Y-1.441
X0.840Y-1.483
X1.022Y-1.728
X1.033Y-1.631
X1.074Y-1.557
X1.126Y-1.522
T2
X0.420Y-0.630
X0.520Y-0.630
X0.680Y-0.130
X0.680Y-0.230
X0.680Y-0.330
X0.680Y-0.430
X0.690Y-0.630
X0.790Y-0.630
X0.970Y-0.630
X0.980Y-0.130
X0.980Y-0.230
X0.980Y-0.330
X0.980Y-0.430
X1.070Y-0.630
X1.080Y-0.130
X1.080Y-0.230
X1.080Y-0.330
X1.080Y-0.430
X1.080Y-0.840
X1.080Y-1.140
X1.080Y-1.260
X1.230Y-0.840
X1.230Y-1.140
X1.250Y-0.630
X1.350Y-0.630
X1.380Y-0.130
X1.380Y-0.230
X1.380Y-0.330
X1.380Y-0.430
X1.380Y-0.840
X1.380Y-1.140
X1.380Y-1.260
T0
M30
