G04 (created by PCBNEW-RS274X (2011-nov-30)-testing) date Fri 09 Dec 2011 12:36:33 PM CST*
G01*
G70*
G90*
%MOIN*%
G04 Gerber Fmt 3.4, Leading zero omitted, Abs format*
%FSLAX34Y34*%
G04 APERTURE LIST*
%ADD10C,0.006000*%
%ADD11C,0.055000*%
%ADD12R,0.050000X0.015000*%
%ADD13C,0.066000*%
%ADD14R,0.055000X0.055000*%
%ADD15R,0.140000X0.080000*%
%ADD16C,0.035000*%
%ADD17C,0.008000*%
G04 APERTURE END LIST*
G54D10*
G54D11*
X10800Y-01300D03*
X13800Y-01300D03*
G54D12*
X07082Y-14284D03*
X07082Y-14540D03*
X07082Y-14796D03*
X07082Y-15052D03*
X07082Y-15308D03*
X07082Y-15564D03*
X07082Y-15820D03*
X07082Y-16076D03*
X04878Y-16076D03*
X04878Y-15820D03*
X04878Y-15564D03*
X04878Y-15308D03*
X04878Y-15052D03*
X04878Y-14796D03*
X04878Y-14540D03*
X04878Y-14284D03*
G54D11*
X10800Y-04300D03*
X13800Y-04300D03*
X13800Y-08400D03*
X13800Y-11400D03*
X12300Y-08400D03*
X12300Y-11400D03*
X10800Y-08400D03*
X10800Y-11400D03*
X10800Y-02300D03*
X13800Y-02300D03*
X10800Y-03300D03*
X13800Y-03300D03*
X13800Y-12600D03*
X10800Y-12600D03*
G54D13*
X13500Y-06300D03*
X12500Y-06300D03*
X10700Y-06300D03*
X09700Y-06300D03*
X07900Y-06300D03*
X06900Y-06300D03*
G54D14*
X09800Y-04300D03*
G54D11*
X09800Y-03300D03*
X09800Y-02300D03*
X09800Y-01300D03*
X06800Y-01300D03*
X06800Y-02300D03*
X06800Y-03300D03*
X06800Y-04300D03*
G54D14*
X05200Y-06300D03*
G54D11*
X04200Y-06300D03*
G54D15*
X00800Y-15200D03*
X00800Y-14200D03*
X00800Y-13200D03*
X00800Y-12200D03*
X00800Y-11200D03*
X00800Y-10200D03*
X00800Y-09200D03*
X00800Y-19200D03*
X00800Y-18200D03*
X00800Y-17200D03*
G54D16*
X06280Y-16650D03*
X04780Y-17730D03*
X03700Y-04930D03*
X11260Y-15220D03*
X02140Y-15200D03*
X10740Y-15570D03*
X02170Y-17590D03*
X10220Y-17280D03*
X02650Y-15690D03*
X06230Y-13080D03*
X07950Y-14410D03*
X10330Y-16310D03*
X08400Y-14830D03*
X02150Y-08110D03*
X05390Y-16990D03*
G54D17*
X05618Y-06300D02*
X06210Y-05708D01*
X07082Y-14540D02*
X06280Y-14540D01*
X12566Y-13834D02*
X06750Y-13834D01*
X05200Y-06300D02*
X05618Y-06300D01*
X13007Y-06793D02*
X13500Y-06300D01*
X06210Y-05708D02*
X07308Y-05708D01*
X06280Y-14540D02*
X06280Y-16650D01*
X08393Y-06793D02*
X13007Y-06793D01*
X07900Y-06300D02*
X08393Y-06793D01*
X07308Y-05708D02*
X07900Y-06300D01*
X06746Y-13834D02*
X06280Y-14300D01*
X06854Y-16076D02*
X06280Y-16650D01*
X13800Y-12600D02*
X12566Y-13834D01*
X06750Y-13834D02*
X06746Y-13834D01*
X07082Y-16076D02*
X06854Y-16076D01*
X06280Y-14300D02*
X06280Y-14540D01*
X01810Y-10260D02*
X05730Y-14180D01*
X01810Y-07750D02*
X01810Y-10200D01*
X05730Y-17560D02*
X05560Y-17730D01*
X05730Y-14560D02*
X05730Y-17560D01*
X05560Y-17730D02*
X04780Y-17730D01*
X05460Y-14560D02*
X05440Y-14540D01*
X03700Y-05860D02*
X01810Y-07750D01*
X05440Y-14540D02*
X04878Y-14540D01*
X05730Y-14180D02*
X05730Y-14560D01*
X01810Y-10200D02*
X01810Y-10260D01*
X05730Y-14560D02*
X05460Y-14560D01*
X00800Y-10200D02*
X01810Y-10200D01*
X03700Y-04930D02*
X03700Y-05860D01*
X11220Y-15180D02*
X11260Y-15220D01*
X08052Y-15052D02*
X08180Y-15180D01*
X07082Y-15052D02*
X08052Y-15052D01*
X08180Y-15180D02*
X11220Y-15180D01*
X02288Y-15052D02*
X02140Y-15200D01*
X04878Y-15052D02*
X02288Y-15052D01*
X02288Y-15052D02*
X02140Y-15200D01*
X07878Y-15308D02*
X08070Y-15500D01*
X07082Y-15308D02*
X07878Y-15308D01*
X10670Y-15500D02*
X10740Y-15570D01*
X08070Y-15500D02*
X10670Y-15500D01*
X02170Y-17590D02*
X03170Y-16590D01*
X03170Y-16590D02*
X03170Y-15760D01*
X03622Y-15308D02*
X04878Y-15308D01*
X03170Y-15760D02*
X03622Y-15308D01*
X07082Y-15820D02*
X07470Y-15820D01*
X10150Y-17210D02*
X10220Y-17280D01*
X08860Y-17210D02*
X10150Y-17210D01*
X07470Y-15820D02*
X08860Y-17210D01*
X04170Y-15820D02*
X04878Y-15820D01*
X03980Y-16820D02*
X03980Y-16010D01*
X00800Y-19200D02*
X01600Y-19200D01*
X01600Y-19200D02*
X03980Y-16820D01*
X03980Y-16010D02*
X04170Y-15820D01*
X01850Y-17200D02*
X00800Y-17200D01*
X06230Y-13080D02*
X06710Y-12600D01*
X02650Y-15690D02*
X01960Y-16380D01*
X01960Y-17090D02*
X01850Y-17200D01*
X10800Y-12600D02*
X06710Y-12600D01*
X01960Y-16380D02*
X01960Y-17090D01*
X07824Y-14284D02*
X07082Y-14284D01*
X07950Y-14410D02*
X07824Y-14284D01*
X02150Y-12200D02*
X04234Y-14284D01*
X00800Y-12200D02*
X02150Y-12200D01*
X04234Y-14284D02*
X04878Y-14284D01*
X07082Y-15564D02*
X07774Y-15564D01*
X08390Y-16180D02*
X10200Y-16180D01*
X07774Y-15564D02*
X08390Y-16180D01*
X10200Y-16180D02*
X10330Y-16310D01*
X03580Y-16720D02*
X03580Y-16000D01*
X02100Y-18200D02*
X03580Y-16720D01*
X04016Y-15564D02*
X04878Y-15564D01*
X04016Y-15564D02*
X03580Y-16000D01*
X00800Y-18200D02*
X02100Y-18200D01*
X07082Y-14796D02*
X08366Y-14796D01*
X08366Y-14796D02*
X08400Y-14830D01*
X00800Y-13200D02*
X01830Y-13200D01*
X03426Y-14796D02*
X04878Y-14796D01*
X01830Y-13200D02*
X03426Y-14796D01*
X05266Y-16076D02*
X05390Y-16200D01*
X05266Y-16076D02*
X04878Y-16076D01*
X08871Y-05471D02*
X09700Y-06300D01*
X05390Y-16200D02*
X05390Y-16990D01*
X02390Y-08110D02*
X04200Y-06300D01*
X08871Y-05471D02*
X05029Y-05471D01*
X02150Y-08110D02*
X02390Y-08110D01*
X04200Y-06300D02*
X05029Y-05471D01*
X08270Y-07670D02*
X10070Y-07670D01*
X06900Y-06300D02*
X08270Y-07670D01*
X10070Y-07670D02*
X10800Y-08400D01*
X09800Y-02300D02*
X10800Y-02300D01*
X09800Y-01300D02*
X10800Y-01300D01*
X09800Y-03300D02*
X10800Y-03300D01*
X09800Y-04300D02*
X10800Y-04300D01*
M02*
