G04 (created by PCBNEW-RS274X (2011-nov-30)-testing) date Fri 09 Dec 2011 12:36:33 PM CST*
G01*
G70*
G90*
%MOIN*%
G04 Gerber Fmt 3.4, Leading zero omitted, Abs format*
%FSLAX34Y34*%
G04 APERTURE LIST*
%ADD10C,0.006000*%
%ADD11C,0.075000*%
%ADD12R,0.070000X0.035000*%
%ADD13R,0.075000X0.075000*%
%ADD14R,0.160000X0.100000*%
G04 APERTURE END LIST*
G54D10*
G54D11*
X10800Y-01300D03*
X13800Y-01300D03*
G54D12*
X07082Y-14284D03*
X07082Y-14540D03*
X07082Y-14796D03*
X07082Y-15052D03*
X07082Y-15308D03*
X07082Y-15564D03*
X07082Y-15820D03*
X07082Y-16076D03*
X04878Y-16076D03*
X04878Y-15820D03*
X04878Y-15564D03*
X04878Y-15308D03*
X04878Y-15052D03*
X04878Y-14796D03*
X04878Y-14540D03*
X04878Y-14284D03*
G54D11*
X10800Y-04300D03*
X13800Y-04300D03*
X13800Y-08400D03*
X13800Y-11400D03*
X12300Y-08400D03*
X12300Y-11400D03*
X10800Y-08400D03*
X10800Y-11400D03*
X10800Y-02300D03*
X13800Y-02300D03*
X10800Y-03300D03*
X13800Y-03300D03*
X13800Y-12600D03*
X10800Y-12600D03*
G54D13*
X09800Y-04300D03*
G54D11*
X09800Y-03300D03*
X09800Y-02300D03*
X09800Y-01300D03*
X06800Y-01300D03*
X06800Y-02300D03*
X06800Y-03300D03*
X06800Y-04300D03*
G54D13*
X05200Y-06300D03*
G54D11*
X04200Y-06300D03*
G54D14*
X00800Y-15200D03*
X00800Y-14200D03*
X00800Y-13200D03*
X00800Y-12200D03*
X00800Y-11200D03*
X00800Y-10200D03*
X00800Y-09200D03*
X00800Y-19200D03*
X00800Y-18200D03*
X00800Y-17200D03*
M02*
