G04 (created by PCBNEW-RS274X (2011-nov-30)-testing) date Fri 09 Dec 2011 12:36:33 PM CST*
G01*
G70*
G90*
%MOIN*%
G04 Gerber Fmt 3.4, Leading zero omitted, Abs format*
%FSLAX34Y34*%
G04 APERTURE LIST*
%ADD10C,0.006000*%
%ADD11C,0.008000*%
%ADD12C,0.003000*%
%ADD13C,0.010000*%
%ADD14C,0.005000*%
%ADD15C,0.019700*%
%ADD16C,0.020000*%
%ADD17C,0.015000*%
%ADD18C,0.003500*%
%ADD19C,0.007500*%
%ADD20C,0.012000*%
G04 APERTURE END LIST*
G54D10*
X00558Y-01438D02*
X00749Y-01338D01*
X00558Y-01266D02*
X00958Y-01266D01*
X00958Y-01381D01*
X00939Y-01409D01*
X00920Y-01424D01*
X00882Y-01438D01*
X00825Y-01438D01*
X00787Y-01424D01*
X00768Y-01409D01*
X00749Y-01381D01*
X00749Y-01266D01*
X00577Y-01681D02*
X00558Y-01652D01*
X00558Y-01595D01*
X00577Y-01566D01*
X00615Y-01552D01*
X00768Y-01552D01*
X00806Y-01566D01*
X00825Y-01595D01*
X00825Y-01652D01*
X00806Y-01681D01*
X00768Y-01695D01*
X00730Y-01695D01*
X00691Y-01552D01*
X00825Y-01795D02*
X00558Y-01866D01*
X00825Y-01938D01*
X00558Y-02439D02*
X00558Y-02267D01*
X00558Y-02353D02*
X00958Y-02353D01*
X00901Y-02324D01*
X00863Y-02296D01*
X00844Y-02267D01*
X00596Y-02567D02*
X00577Y-02582D01*
X00558Y-02567D01*
X00577Y-02553D01*
X00596Y-02567D01*
X00558Y-02567D01*
X00958Y-02768D02*
X00958Y-02796D01*
X00939Y-02825D01*
X00920Y-02839D01*
X00882Y-02853D01*
X00806Y-02868D01*
X00710Y-02868D01*
X00634Y-02853D01*
X00596Y-02839D01*
X00577Y-02825D01*
X00558Y-02796D01*
X00558Y-02768D01*
X00577Y-02739D01*
X00596Y-02725D01*
X00634Y-02710D01*
X00710Y-02696D01*
X00806Y-02696D01*
X00882Y-02710D01*
X00920Y-02725D01*
X00939Y-02739D01*
X00958Y-02768D01*
X01588Y-01182D02*
X01188Y-01253D01*
X01474Y-01310D01*
X01188Y-01368D01*
X01588Y-01439D01*
X01188Y-01553D02*
X01455Y-01553D01*
X01588Y-01553D02*
X01569Y-01539D01*
X01550Y-01553D01*
X01569Y-01568D01*
X01588Y-01553D01*
X01550Y-01553D01*
X01188Y-01696D02*
X01455Y-01696D01*
X01379Y-01696D02*
X01417Y-01711D01*
X01436Y-01725D01*
X01455Y-01754D01*
X01455Y-01782D01*
X01207Y-01997D02*
X01188Y-01968D01*
X01188Y-01911D01*
X01207Y-01882D01*
X01245Y-01868D01*
X01398Y-01868D01*
X01436Y-01882D01*
X01455Y-01911D01*
X01455Y-01968D01*
X01436Y-01997D01*
X01398Y-02011D01*
X01360Y-02011D01*
X01321Y-01868D01*
X01188Y-02182D02*
X01207Y-02154D01*
X01245Y-02139D01*
X01588Y-02139D01*
X01207Y-02411D02*
X01188Y-02382D01*
X01188Y-02325D01*
X01207Y-02296D01*
X01245Y-02282D01*
X01398Y-02282D01*
X01436Y-02296D01*
X01455Y-02325D01*
X01455Y-02382D01*
X01436Y-02411D01*
X01398Y-02425D01*
X01360Y-02425D01*
X01321Y-02282D01*
X01207Y-02539D02*
X01188Y-02568D01*
X01188Y-02625D01*
X01207Y-02653D01*
X01245Y-02668D01*
X01264Y-02668D01*
X01302Y-02653D01*
X01321Y-02625D01*
X01321Y-02582D01*
X01340Y-02553D01*
X01379Y-02539D01*
X01398Y-02539D01*
X01436Y-02553D01*
X01455Y-02582D01*
X01455Y-02625D01*
X01436Y-02653D01*
X01207Y-02782D02*
X01188Y-02811D01*
X01188Y-02868D01*
X01207Y-02896D01*
X01245Y-02911D01*
X01264Y-02911D01*
X01302Y-02896D01*
X01321Y-02868D01*
X01321Y-02825D01*
X01340Y-02796D01*
X01379Y-02782D01*
X01398Y-02782D01*
X01436Y-02796D01*
X01455Y-02825D01*
X01455Y-02868D01*
X01436Y-02896D01*
X01302Y-03254D02*
X01302Y-03397D01*
X01188Y-03226D02*
X01588Y-03326D01*
X01188Y-03426D01*
X01188Y-03654D02*
X01588Y-03654D01*
X01207Y-03654D02*
X01188Y-03625D01*
X01188Y-03568D01*
X01207Y-03540D01*
X01226Y-03525D01*
X01264Y-03511D01*
X01379Y-03511D01*
X01417Y-03525D01*
X01436Y-03540D01*
X01455Y-03568D01*
X01455Y-03625D01*
X01436Y-03654D01*
X01188Y-03925D02*
X01398Y-03925D01*
X01436Y-03911D01*
X01455Y-03882D01*
X01455Y-03825D01*
X01436Y-03796D01*
X01207Y-03925D02*
X01188Y-03896D01*
X01188Y-03825D01*
X01207Y-03796D01*
X01245Y-03782D01*
X01283Y-03782D01*
X01321Y-03796D01*
X01340Y-03825D01*
X01340Y-03896D01*
X01360Y-03925D01*
X01455Y-04067D02*
X01055Y-04067D01*
X01436Y-04067D02*
X01455Y-04096D01*
X01455Y-04153D01*
X01436Y-04182D01*
X01417Y-04196D01*
X01379Y-04210D01*
X01264Y-04210D01*
X01226Y-04196D01*
X01207Y-04182D01*
X01188Y-04153D01*
X01188Y-04096D01*
X01207Y-04067D01*
X01455Y-04296D02*
X01455Y-04410D01*
X01588Y-04338D02*
X01245Y-04338D01*
X01207Y-04353D01*
X01188Y-04381D01*
X01188Y-04410D01*
X01207Y-04624D02*
X01188Y-04595D01*
X01188Y-04538D01*
X01207Y-04509D01*
X01245Y-04495D01*
X01398Y-04495D01*
X01436Y-04509D01*
X01455Y-04538D01*
X01455Y-04595D01*
X01436Y-04624D01*
X01398Y-04638D01*
X01360Y-04638D01*
X01321Y-04495D01*
X01188Y-04766D02*
X01455Y-04766D01*
X01379Y-04766D02*
X01417Y-04781D01*
X01436Y-04795D01*
X01455Y-04824D01*
X01455Y-04852D01*
X01867Y-01152D02*
X01848Y-01195D01*
X01848Y-01266D01*
X01867Y-01295D01*
X01886Y-01309D01*
X01924Y-01324D01*
X01962Y-01324D01*
X02000Y-01309D01*
X02020Y-01295D01*
X02039Y-01266D01*
X02058Y-01209D01*
X02077Y-01181D01*
X02096Y-01166D01*
X02134Y-01152D01*
X02172Y-01152D01*
X02210Y-01166D01*
X02229Y-01181D01*
X02248Y-01209D01*
X02248Y-01281D01*
X02229Y-01324D01*
X01848Y-01581D02*
X02058Y-01581D01*
X02096Y-01567D01*
X02115Y-01538D01*
X02115Y-01481D01*
X02096Y-01452D01*
X01867Y-01581D02*
X01848Y-01552D01*
X01848Y-01481D01*
X01867Y-01452D01*
X01905Y-01438D01*
X01943Y-01438D01*
X01981Y-01452D01*
X02000Y-01481D01*
X02000Y-01552D01*
X02020Y-01581D01*
X02115Y-01723D02*
X01848Y-01723D01*
X02077Y-01723D02*
X02096Y-01738D01*
X02115Y-01766D01*
X02115Y-01809D01*
X02096Y-01838D01*
X02058Y-01852D01*
X01848Y-01852D01*
X02115Y-02123D02*
X01791Y-02123D01*
X01753Y-02109D01*
X01734Y-02094D01*
X01715Y-02066D01*
X01715Y-02023D01*
X01734Y-01994D01*
X01867Y-02123D02*
X01848Y-02094D01*
X01848Y-02037D01*
X01867Y-02009D01*
X01886Y-01994D01*
X01924Y-01980D01*
X02039Y-01980D01*
X02077Y-01994D01*
X02096Y-02009D01*
X02115Y-02037D01*
X02115Y-02094D01*
X02096Y-02123D01*
X02115Y-02394D02*
X01848Y-02394D01*
X02115Y-02265D02*
X01905Y-02265D01*
X01867Y-02280D01*
X01848Y-02308D01*
X01848Y-02351D01*
X01867Y-02380D01*
X01886Y-02394D01*
X01848Y-02536D02*
X02115Y-02536D01*
X02248Y-02536D02*
X02229Y-02522D01*
X02210Y-02536D01*
X02229Y-02551D01*
X02248Y-02536D01*
X02210Y-02536D01*
X02115Y-02679D02*
X01848Y-02679D01*
X02077Y-02679D02*
X02096Y-02694D01*
X02115Y-02722D01*
X02115Y-02765D01*
X02096Y-02794D01*
X02058Y-02808D01*
X01848Y-02808D01*
X01848Y-02993D02*
X01867Y-02965D01*
X01886Y-02950D01*
X01924Y-02936D01*
X02039Y-02936D01*
X02077Y-02950D01*
X02096Y-02965D01*
X02115Y-02993D01*
X02115Y-03036D01*
X02096Y-03065D01*
X02077Y-03079D01*
X02039Y-03093D01*
X01924Y-03093D01*
X01886Y-03079D01*
X01867Y-03065D01*
X01848Y-03036D01*
X01848Y-02993D01*
X01848Y-03264D02*
X01867Y-03236D01*
X01905Y-03221D01*
X02248Y-03221D01*
X01848Y-03421D02*
X01867Y-03393D01*
X01886Y-03378D01*
X01924Y-03364D01*
X02039Y-03364D01*
X02077Y-03378D01*
X02096Y-03393D01*
X02115Y-03421D01*
X02115Y-03464D01*
X02096Y-03493D01*
X02077Y-03507D01*
X02039Y-03521D01*
X01924Y-03521D01*
X01886Y-03507D01*
X01867Y-03493D01*
X01848Y-03464D01*
X01848Y-03421D01*
X01848Y-03692D02*
X01867Y-03664D01*
X01905Y-03649D01*
X02248Y-03649D01*
X02115Y-03935D02*
X01848Y-03935D01*
X02115Y-03806D02*
X01905Y-03806D01*
X01867Y-03821D01*
X01848Y-03849D01*
X01848Y-03892D01*
X01867Y-03921D01*
X01886Y-03935D01*
G54D11*
X10800Y-01300D02*
X11000Y-01300D01*
X13800Y-01300D02*
X13600Y-01300D01*
X13600Y-01300D02*
X13600Y-00900D01*
X13600Y-00900D02*
X11000Y-00900D01*
X11000Y-00900D02*
X11000Y-01700D01*
X11000Y-01700D02*
X13600Y-01700D01*
X13600Y-01700D02*
X13600Y-01300D01*
X11000Y-01100D02*
X11200Y-00900D01*
X03200Y-03400D02*
X03200Y-04600D01*
X03200Y-04600D02*
X06000Y-04600D01*
X06000Y-04600D02*
X06000Y-03400D01*
X03200Y-02200D02*
X03200Y-01900D01*
X03200Y-01900D02*
X03800Y-01000D01*
X03800Y-01000D02*
X05400Y-01000D01*
X05400Y-01000D02*
X06000Y-01900D01*
X06000Y-01900D02*
X06000Y-02200D01*
X10800Y-04300D02*
X11000Y-04300D01*
X13800Y-04300D02*
X13600Y-04300D01*
X13600Y-04300D02*
X13600Y-03900D01*
X13600Y-03900D02*
X11000Y-03900D01*
X11000Y-03900D02*
X11000Y-04700D01*
X11000Y-04700D02*
X13600Y-04700D01*
X13600Y-04700D02*
X13600Y-04300D01*
X11000Y-04100D02*
X11200Y-03900D01*
X13800Y-08400D02*
X13800Y-08600D01*
X13800Y-11400D02*
X13800Y-11200D01*
X13800Y-11200D02*
X14200Y-11200D01*
X14200Y-11200D02*
X14200Y-08600D01*
X14200Y-08600D02*
X13400Y-08600D01*
X13400Y-08600D02*
X13400Y-11200D01*
X13400Y-11200D02*
X13800Y-11200D01*
X14000Y-08600D02*
X14200Y-08800D01*
X12300Y-08400D02*
X12300Y-08600D01*
X12300Y-11400D02*
X12300Y-11200D01*
X12300Y-11200D02*
X12700Y-11200D01*
X12700Y-11200D02*
X12700Y-08600D01*
X12700Y-08600D02*
X11900Y-08600D01*
X11900Y-08600D02*
X11900Y-11200D01*
X11900Y-11200D02*
X12300Y-11200D01*
X12500Y-08600D02*
X12700Y-08800D01*
X10800Y-08400D02*
X10800Y-08600D01*
X10800Y-11400D02*
X10800Y-11200D01*
X10800Y-11200D02*
X11200Y-11200D01*
X11200Y-11200D02*
X11200Y-08600D01*
X11200Y-08600D02*
X10400Y-08600D01*
X10400Y-08600D02*
X10400Y-11200D01*
X10400Y-11200D02*
X10800Y-11200D01*
X11000Y-08600D02*
X11200Y-08800D01*
X10800Y-02300D02*
X11000Y-02300D01*
X13800Y-02300D02*
X13600Y-02300D01*
X13600Y-02300D02*
X13600Y-01900D01*
X13600Y-01900D02*
X11000Y-01900D01*
X11000Y-01900D02*
X11000Y-02700D01*
X11000Y-02700D02*
X13600Y-02700D01*
X13600Y-02700D02*
X13600Y-02300D01*
X11000Y-02100D02*
X11200Y-01900D01*
X10800Y-03300D02*
X11000Y-03300D01*
X13800Y-03300D02*
X13600Y-03300D01*
X13600Y-03300D02*
X13600Y-02900D01*
X13600Y-02900D02*
X11000Y-02900D01*
X11000Y-02900D02*
X11000Y-03700D01*
X11000Y-03700D02*
X13600Y-03700D01*
X13600Y-03700D02*
X13600Y-03300D01*
X11000Y-03100D02*
X11200Y-02900D01*
X13800Y-12600D02*
X13600Y-12600D01*
X10800Y-12600D02*
X11000Y-12600D01*
X11000Y-12600D02*
X11000Y-13000D01*
X11000Y-13000D02*
X13600Y-13000D01*
X13600Y-13000D02*
X13600Y-12200D01*
X13600Y-12200D02*
X11000Y-12200D01*
X11000Y-12200D02*
X11000Y-12600D01*
X13600Y-12800D02*
X13400Y-13000D01*
X11880Y-05550D02*
X11880Y-07050D01*
G54D12*
X13607Y-06300D02*
X13593Y-06437D01*
X13553Y-06569D01*
X13488Y-06691D01*
X13401Y-06798D01*
X13295Y-06886D01*
X13173Y-06951D01*
X13042Y-06992D01*
X12904Y-07006D01*
X12768Y-06994D01*
X12636Y-06955D01*
X12513Y-06891D01*
X12406Y-06805D01*
X12317Y-06699D01*
X12251Y-06578D01*
X12209Y-06446D01*
X12194Y-06309D01*
X12205Y-06173D01*
X12243Y-06040D01*
X12306Y-05918D01*
X12392Y-05809D01*
X12497Y-05720D01*
X12617Y-05653D01*
X12749Y-05610D01*
X12886Y-05594D01*
X13022Y-05604D01*
X13155Y-05641D01*
X13278Y-05704D01*
X13387Y-05789D01*
X13477Y-05893D01*
X13545Y-06013D01*
X13589Y-06144D01*
X13606Y-06281D01*
X13607Y-06300D01*
G54D13*
X11901Y-07050D02*
X11970Y-07134D01*
X12046Y-07212D01*
X12129Y-07283D01*
X12218Y-07347D01*
X12312Y-07402D01*
X12410Y-07449D01*
X12512Y-07488D01*
X12617Y-07517D01*
X12724Y-07537D01*
X12833Y-07548D01*
X12941Y-07549D01*
X13050Y-07540D01*
X13157Y-07523D01*
X13263Y-07496D01*
X13366Y-07459D01*
X13465Y-07414D01*
X13560Y-07361D01*
X13650Y-07299D01*
X13734Y-07230D01*
X13812Y-07154D01*
X13883Y-07071D01*
X13947Y-06982D01*
X14002Y-06888D01*
X14049Y-06790D01*
X14088Y-06688D01*
X14117Y-06583D01*
X14137Y-06476D01*
X14148Y-06367D01*
X14149Y-06259D01*
X14140Y-06150D01*
X14123Y-06043D01*
X14096Y-05937D01*
X14059Y-05834D01*
X14014Y-05735D01*
X13961Y-05640D01*
X13899Y-05550D01*
X13830Y-05466D01*
X13754Y-05388D01*
X13671Y-05317D01*
X13582Y-05253D01*
X13488Y-05198D01*
X13390Y-05151D01*
X13288Y-05112D01*
X13183Y-05083D01*
X13076Y-05063D01*
X12967Y-05052D01*
X12859Y-05051D01*
X12750Y-05060D01*
X12643Y-05077D01*
X12537Y-05104D01*
X12434Y-05141D01*
X12335Y-05186D01*
X12240Y-05239D01*
X12150Y-05301D01*
X12066Y-05370D01*
X11988Y-05446D01*
X11917Y-05529D01*
X11901Y-05550D01*
G54D10*
X12900Y-06750D02*
X12939Y-06748D01*
X12978Y-06743D01*
X13016Y-06734D01*
X13053Y-06722D01*
X13090Y-06707D01*
X13125Y-06689D01*
X13158Y-06668D01*
X13189Y-06644D01*
X13218Y-06618D01*
X13244Y-06589D01*
X13268Y-06558D01*
X13289Y-06524D01*
X13307Y-06490D01*
X13322Y-06453D01*
X13334Y-06416D01*
X13343Y-06378D01*
X13348Y-06339D01*
X13350Y-06300D01*
X12900Y-05850D02*
X12861Y-05852D01*
X12822Y-05857D01*
X12784Y-05866D01*
X12747Y-05878D01*
X12710Y-05893D01*
X12676Y-05911D01*
X12642Y-05932D01*
X12611Y-05956D01*
X12582Y-05982D01*
X12556Y-06011D01*
X12532Y-06042D01*
X12511Y-06076D01*
X12493Y-06110D01*
X12478Y-06147D01*
X12466Y-06184D01*
X12457Y-06222D01*
X12452Y-06261D01*
X12450Y-06300D01*
X12900Y-06950D02*
X12956Y-06947D01*
X13012Y-06940D01*
X13068Y-06927D01*
X13122Y-06910D01*
X13174Y-06889D01*
X13225Y-06862D01*
X13272Y-06832D01*
X13317Y-06797D01*
X13359Y-06759D01*
X13397Y-06717D01*
X13432Y-06672D01*
X13462Y-06624D01*
X13489Y-06574D01*
X13510Y-06522D01*
X13527Y-06468D01*
X13540Y-06412D01*
X13547Y-06356D01*
X13550Y-06300D01*
X12900Y-05650D02*
X12844Y-05653D01*
X12788Y-05660D01*
X12732Y-05673D01*
X12678Y-05690D01*
X12626Y-05711D01*
X12576Y-05738D01*
X12528Y-05768D01*
X12483Y-05803D01*
X12441Y-05841D01*
X12403Y-05883D01*
X12368Y-05928D01*
X12338Y-05976D01*
X12311Y-06026D01*
X12290Y-06078D01*
X12273Y-06132D01*
X12260Y-06188D01*
X12253Y-06244D01*
X12250Y-06300D01*
X12900Y-07150D02*
X12974Y-07146D01*
X13047Y-07137D01*
X13119Y-07121D01*
X13190Y-07098D01*
X13259Y-07070D01*
X13325Y-07036D01*
X13387Y-06996D01*
X13446Y-06951D01*
X13501Y-06901D01*
X13551Y-06846D01*
X13596Y-06787D01*
X13636Y-06724D01*
X13670Y-06659D01*
X13698Y-06590D01*
X13721Y-06519D01*
X13737Y-06447D01*
X13746Y-06374D01*
X13750Y-06300D01*
X12900Y-05450D02*
X12826Y-05454D01*
X12753Y-05463D01*
X12681Y-05479D01*
X12610Y-05502D01*
X12541Y-05530D01*
X12476Y-05564D01*
X12413Y-05604D01*
X12354Y-05649D01*
X12299Y-05699D01*
X12249Y-05754D01*
X12204Y-05813D01*
X12164Y-05876D01*
X12130Y-05941D01*
X12102Y-06010D01*
X12079Y-06081D01*
X12063Y-06153D01*
X12054Y-06226D01*
X12050Y-06300D01*
G54D11*
X09080Y-05550D02*
X09080Y-07050D01*
G54D12*
X10807Y-06300D02*
X10793Y-06437D01*
X10753Y-06569D01*
X10688Y-06691D01*
X10601Y-06798D01*
X10495Y-06886D01*
X10373Y-06951D01*
X10242Y-06992D01*
X10104Y-07006D01*
X09968Y-06994D01*
X09836Y-06955D01*
X09713Y-06891D01*
X09606Y-06805D01*
X09517Y-06699D01*
X09451Y-06578D01*
X09409Y-06446D01*
X09394Y-06309D01*
X09405Y-06173D01*
X09443Y-06040D01*
X09506Y-05918D01*
X09592Y-05809D01*
X09697Y-05720D01*
X09817Y-05653D01*
X09949Y-05610D01*
X10086Y-05594D01*
X10222Y-05604D01*
X10355Y-05641D01*
X10478Y-05704D01*
X10587Y-05789D01*
X10677Y-05893D01*
X10745Y-06013D01*
X10789Y-06144D01*
X10806Y-06281D01*
X10807Y-06300D01*
G54D13*
X09101Y-07050D02*
X09170Y-07134D01*
X09246Y-07212D01*
X09329Y-07283D01*
X09418Y-07347D01*
X09512Y-07402D01*
X09610Y-07449D01*
X09712Y-07488D01*
X09817Y-07517D01*
X09924Y-07537D01*
X10033Y-07548D01*
X10141Y-07549D01*
X10250Y-07540D01*
X10357Y-07523D01*
X10463Y-07496D01*
X10566Y-07459D01*
X10665Y-07414D01*
X10760Y-07361D01*
X10850Y-07299D01*
X10934Y-07230D01*
X11012Y-07154D01*
X11083Y-07071D01*
X11147Y-06982D01*
X11202Y-06888D01*
X11249Y-06790D01*
X11288Y-06688D01*
X11317Y-06583D01*
X11337Y-06476D01*
X11348Y-06367D01*
X11349Y-06259D01*
X11340Y-06150D01*
X11323Y-06043D01*
X11296Y-05937D01*
X11259Y-05834D01*
X11214Y-05735D01*
X11161Y-05640D01*
X11099Y-05550D01*
X11030Y-05466D01*
X10954Y-05388D01*
X10871Y-05317D01*
X10782Y-05253D01*
X10688Y-05198D01*
X10590Y-05151D01*
X10488Y-05112D01*
X10383Y-05083D01*
X10276Y-05063D01*
X10167Y-05052D01*
X10059Y-05051D01*
X09950Y-05060D01*
X09843Y-05077D01*
X09737Y-05104D01*
X09634Y-05141D01*
X09535Y-05186D01*
X09440Y-05239D01*
X09350Y-05301D01*
X09266Y-05370D01*
X09188Y-05446D01*
X09117Y-05529D01*
X09101Y-05550D01*
G54D10*
X10100Y-06750D02*
X10139Y-06748D01*
X10178Y-06743D01*
X10216Y-06734D01*
X10253Y-06722D01*
X10290Y-06707D01*
X10325Y-06689D01*
X10358Y-06668D01*
X10389Y-06644D01*
X10418Y-06618D01*
X10444Y-06589D01*
X10468Y-06558D01*
X10489Y-06524D01*
X10507Y-06490D01*
X10522Y-06453D01*
X10534Y-06416D01*
X10543Y-06378D01*
X10548Y-06339D01*
X10550Y-06300D01*
X10100Y-05850D02*
X10061Y-05852D01*
X10022Y-05857D01*
X09984Y-05866D01*
X09947Y-05878D01*
X09910Y-05893D01*
X09876Y-05911D01*
X09842Y-05932D01*
X09811Y-05956D01*
X09782Y-05982D01*
X09756Y-06011D01*
X09732Y-06042D01*
X09711Y-06076D01*
X09693Y-06110D01*
X09678Y-06147D01*
X09666Y-06184D01*
X09657Y-06222D01*
X09652Y-06261D01*
X09650Y-06300D01*
X10100Y-06950D02*
X10156Y-06947D01*
X10212Y-06940D01*
X10268Y-06927D01*
X10322Y-06910D01*
X10374Y-06889D01*
X10425Y-06862D01*
X10472Y-06832D01*
X10517Y-06797D01*
X10559Y-06759D01*
X10597Y-06717D01*
X10632Y-06672D01*
X10662Y-06624D01*
X10689Y-06574D01*
X10710Y-06522D01*
X10727Y-06468D01*
X10740Y-06412D01*
X10747Y-06356D01*
X10750Y-06300D01*
X10100Y-05650D02*
X10044Y-05653D01*
X09988Y-05660D01*
X09932Y-05673D01*
X09878Y-05690D01*
X09826Y-05711D01*
X09776Y-05738D01*
X09728Y-05768D01*
X09683Y-05803D01*
X09641Y-05841D01*
X09603Y-05883D01*
X09568Y-05928D01*
X09538Y-05976D01*
X09511Y-06026D01*
X09490Y-06078D01*
X09473Y-06132D01*
X09460Y-06188D01*
X09453Y-06244D01*
X09450Y-06300D01*
X10100Y-07150D02*
X10174Y-07146D01*
X10247Y-07137D01*
X10319Y-07121D01*
X10390Y-07098D01*
X10459Y-07070D01*
X10525Y-07036D01*
X10587Y-06996D01*
X10646Y-06951D01*
X10701Y-06901D01*
X10751Y-06846D01*
X10796Y-06787D01*
X10836Y-06724D01*
X10870Y-06659D01*
X10898Y-06590D01*
X10921Y-06519D01*
X10937Y-06447D01*
X10946Y-06374D01*
X10950Y-06300D01*
X10100Y-05450D02*
X10026Y-05454D01*
X09953Y-05463D01*
X09881Y-05479D01*
X09810Y-05502D01*
X09741Y-05530D01*
X09676Y-05564D01*
X09613Y-05604D01*
X09554Y-05649D01*
X09499Y-05699D01*
X09449Y-05754D01*
X09404Y-05813D01*
X09364Y-05876D01*
X09330Y-05941D01*
X09302Y-06010D01*
X09279Y-06081D01*
X09263Y-06153D01*
X09254Y-06226D01*
X09250Y-06300D01*
G54D11*
X06280Y-05550D02*
X06280Y-07050D01*
G54D12*
X08007Y-06300D02*
X07993Y-06437D01*
X07953Y-06569D01*
X07888Y-06691D01*
X07801Y-06798D01*
X07695Y-06886D01*
X07573Y-06951D01*
X07442Y-06992D01*
X07304Y-07006D01*
X07168Y-06994D01*
X07036Y-06955D01*
X06913Y-06891D01*
X06806Y-06805D01*
X06717Y-06699D01*
X06651Y-06578D01*
X06609Y-06446D01*
X06594Y-06309D01*
X06605Y-06173D01*
X06643Y-06040D01*
X06706Y-05918D01*
X06792Y-05809D01*
X06897Y-05720D01*
X07017Y-05653D01*
X07149Y-05610D01*
X07286Y-05594D01*
X07422Y-05604D01*
X07555Y-05641D01*
X07678Y-05704D01*
X07787Y-05789D01*
X07877Y-05893D01*
X07945Y-06013D01*
X07989Y-06144D01*
X08006Y-06281D01*
X08007Y-06300D01*
G54D13*
X06301Y-07050D02*
X06370Y-07134D01*
X06446Y-07212D01*
X06529Y-07283D01*
X06618Y-07347D01*
X06712Y-07402D01*
X06810Y-07449D01*
X06912Y-07488D01*
X07017Y-07517D01*
X07124Y-07537D01*
X07233Y-07548D01*
X07341Y-07549D01*
X07450Y-07540D01*
X07557Y-07523D01*
X07663Y-07496D01*
X07766Y-07459D01*
X07865Y-07414D01*
X07960Y-07361D01*
X08050Y-07299D01*
X08134Y-07230D01*
X08212Y-07154D01*
X08283Y-07071D01*
X08347Y-06982D01*
X08402Y-06888D01*
X08449Y-06790D01*
X08488Y-06688D01*
X08517Y-06583D01*
X08537Y-06476D01*
X08548Y-06367D01*
X08549Y-06259D01*
X08540Y-06150D01*
X08523Y-06043D01*
X08496Y-05937D01*
X08459Y-05834D01*
X08414Y-05735D01*
X08361Y-05640D01*
X08299Y-05550D01*
X08230Y-05466D01*
X08154Y-05388D01*
X08071Y-05317D01*
X07982Y-05253D01*
X07888Y-05198D01*
X07790Y-05151D01*
X07688Y-05112D01*
X07583Y-05083D01*
X07476Y-05063D01*
X07367Y-05052D01*
X07259Y-05051D01*
X07150Y-05060D01*
X07043Y-05077D01*
X06937Y-05104D01*
X06834Y-05141D01*
X06735Y-05186D01*
X06640Y-05239D01*
X06550Y-05301D01*
X06466Y-05370D01*
X06388Y-05446D01*
X06317Y-05529D01*
X06301Y-05550D01*
G54D10*
X07300Y-06750D02*
X07339Y-06748D01*
X07378Y-06743D01*
X07416Y-06734D01*
X07453Y-06722D01*
X07490Y-06707D01*
X07525Y-06689D01*
X07558Y-06668D01*
X07589Y-06644D01*
X07618Y-06618D01*
X07644Y-06589D01*
X07668Y-06558D01*
X07689Y-06524D01*
X07707Y-06490D01*
X07722Y-06453D01*
X07734Y-06416D01*
X07743Y-06378D01*
X07748Y-06339D01*
X07750Y-06300D01*
X07300Y-05850D02*
X07261Y-05852D01*
X07222Y-05857D01*
X07184Y-05866D01*
X07147Y-05878D01*
X07110Y-05893D01*
X07076Y-05911D01*
X07042Y-05932D01*
X07011Y-05956D01*
X06982Y-05982D01*
X06956Y-06011D01*
X06932Y-06042D01*
X06911Y-06076D01*
X06893Y-06110D01*
X06878Y-06147D01*
X06866Y-06184D01*
X06857Y-06222D01*
X06852Y-06261D01*
X06850Y-06300D01*
X07300Y-06950D02*
X07356Y-06947D01*
X07412Y-06940D01*
X07468Y-06927D01*
X07522Y-06910D01*
X07574Y-06889D01*
X07625Y-06862D01*
X07672Y-06832D01*
X07717Y-06797D01*
X07759Y-06759D01*
X07797Y-06717D01*
X07832Y-06672D01*
X07862Y-06624D01*
X07889Y-06574D01*
X07910Y-06522D01*
X07927Y-06468D01*
X07940Y-06412D01*
X07947Y-06356D01*
X07950Y-06300D01*
X07300Y-05650D02*
X07244Y-05653D01*
X07188Y-05660D01*
X07132Y-05673D01*
X07078Y-05690D01*
X07026Y-05711D01*
X06976Y-05738D01*
X06928Y-05768D01*
X06883Y-05803D01*
X06841Y-05841D01*
X06803Y-05883D01*
X06768Y-05928D01*
X06738Y-05976D01*
X06711Y-06026D01*
X06690Y-06078D01*
X06673Y-06132D01*
X06660Y-06188D01*
X06653Y-06244D01*
X06650Y-06300D01*
X07300Y-07150D02*
X07374Y-07146D01*
X07447Y-07137D01*
X07519Y-07121D01*
X07590Y-07098D01*
X07659Y-07070D01*
X07725Y-07036D01*
X07787Y-06996D01*
X07846Y-06951D01*
X07901Y-06901D01*
X07951Y-06846D01*
X07996Y-06787D01*
X08036Y-06724D01*
X08070Y-06659D01*
X08098Y-06590D01*
X08121Y-06519D01*
X08137Y-06447D01*
X08146Y-06374D01*
X08150Y-06300D01*
X07300Y-05450D02*
X07226Y-05454D01*
X07153Y-05463D01*
X07081Y-05479D01*
X07010Y-05502D01*
X06941Y-05530D01*
X06876Y-05564D01*
X06813Y-05604D01*
X06754Y-05649D01*
X06699Y-05699D01*
X06649Y-05754D01*
X06604Y-05813D01*
X06564Y-05876D01*
X06530Y-05941D01*
X06502Y-06010D01*
X06479Y-06081D01*
X06463Y-06153D01*
X06454Y-06226D01*
X06450Y-06300D01*
G54D13*
X07800Y-04800D02*
X07800Y-04300D01*
X07800Y-04300D02*
X08800Y-04300D01*
X08800Y-04300D02*
X08800Y-04800D01*
X07300Y-04800D02*
X07300Y-00800D01*
X07300Y-00800D02*
X09300Y-00800D01*
X09300Y-00800D02*
X09300Y-04800D01*
X09300Y-04800D02*
X07300Y-04800D01*
G54D14*
X05701Y-06300D02*
X05681Y-06494D01*
X05625Y-06681D01*
X05533Y-06853D01*
X05410Y-07005D01*
X05259Y-07129D01*
X05087Y-07222D01*
X04901Y-07280D01*
X04706Y-07300D01*
X04513Y-07283D01*
X04326Y-07228D01*
X04152Y-07137D01*
X04000Y-07015D01*
X03875Y-06865D01*
X03780Y-06694D01*
X03721Y-06508D01*
X03700Y-06313D01*
X03716Y-06120D01*
X03770Y-05932D01*
X03859Y-05758D01*
X03980Y-05605D01*
X04129Y-05479D01*
X04300Y-05383D01*
X04486Y-05323D01*
X04680Y-05300D01*
X04873Y-05315D01*
X05061Y-05367D01*
X05236Y-05455D01*
X05390Y-05576D01*
X05517Y-05723D01*
X05614Y-05893D01*
X05676Y-06079D01*
X05700Y-06273D01*
X05701Y-06300D01*
G54D15*
X03467Y-08223D02*
X09530Y-08223D01*
X09530Y-08223D02*
X09530Y-18892D01*
X09530Y-18892D02*
X03467Y-18892D01*
X03467Y-18892D02*
X03467Y-08223D01*
G54D16*
X00200Y-08600D02*
X01700Y-08600D01*
X01700Y-08600D02*
X01700Y-15800D01*
X01700Y-15800D02*
X00200Y-15800D01*
X00200Y-16600D02*
X01700Y-16600D01*
X01700Y-16600D02*
X01700Y-19800D01*
X01700Y-19800D02*
X00200Y-19800D01*
G54D17*
X12122Y-18658D02*
X12122Y-13706D01*
X12122Y-13706D02*
X14398Y-13706D01*
X14398Y-13706D02*
X14398Y-18658D01*
X14398Y-18658D02*
X12122Y-18658D01*
G54D11*
X12217Y-01573D02*
X12050Y-01311D01*
X11931Y-01573D02*
X11931Y-01023D01*
X12122Y-01023D01*
X12169Y-01049D01*
X12193Y-01075D01*
X12217Y-01127D01*
X12217Y-01206D01*
X12193Y-01258D01*
X12169Y-01285D01*
X12122Y-01311D01*
X11931Y-01311D01*
X12669Y-01023D02*
X12431Y-01023D01*
X12407Y-01285D01*
X12431Y-01258D01*
X12479Y-01232D01*
X12598Y-01232D01*
X12645Y-01258D01*
X12669Y-01285D01*
X12693Y-01337D01*
X12693Y-01468D01*
X12669Y-01520D01*
X12645Y-01546D01*
X12598Y-01573D01*
X12479Y-01573D01*
X12431Y-01546D01*
X12407Y-01520D01*
X04295Y-02262D02*
X04295Y-02586D01*
X04314Y-02624D01*
X04333Y-02643D01*
X04371Y-02662D01*
X04448Y-02662D01*
X04486Y-02643D01*
X04505Y-02624D01*
X04524Y-02586D01*
X04524Y-02262D01*
X04676Y-02262D02*
X04924Y-02262D01*
X04790Y-02414D01*
X04848Y-02414D01*
X04886Y-02433D01*
X04905Y-02452D01*
X04924Y-02490D01*
X04924Y-02586D01*
X04905Y-02624D01*
X04886Y-02643D01*
X04848Y-02662D01*
X04733Y-02662D01*
X04695Y-02643D01*
X04676Y-02624D01*
X12217Y-04573D02*
X12050Y-04311D01*
X11931Y-04573D02*
X11931Y-04023D01*
X12122Y-04023D01*
X12169Y-04049D01*
X12193Y-04075D01*
X12217Y-04127D01*
X12217Y-04206D01*
X12193Y-04258D01*
X12169Y-04285D01*
X12122Y-04311D01*
X11931Y-04311D01*
X12407Y-04075D02*
X12431Y-04049D01*
X12479Y-04023D01*
X12598Y-04023D01*
X12645Y-04049D01*
X12669Y-04075D01*
X12693Y-04127D01*
X12693Y-04180D01*
X12669Y-04258D01*
X12383Y-04573D01*
X12693Y-04573D01*
X13973Y-09983D02*
X13711Y-10150D01*
X13973Y-10269D02*
X13423Y-10269D01*
X13423Y-10078D01*
X13449Y-10031D01*
X13475Y-10007D01*
X13527Y-09983D01*
X13606Y-09983D01*
X13658Y-10007D01*
X13685Y-10031D01*
X13711Y-10078D01*
X13711Y-10269D01*
X13658Y-09698D02*
X13632Y-09745D01*
X13606Y-09769D01*
X13554Y-09793D01*
X13527Y-09793D01*
X13475Y-09769D01*
X13449Y-09745D01*
X13423Y-09698D01*
X13423Y-09602D01*
X13449Y-09555D01*
X13475Y-09531D01*
X13527Y-09507D01*
X13554Y-09507D01*
X13606Y-09531D01*
X13632Y-09555D01*
X13658Y-09602D01*
X13658Y-09698D01*
X13685Y-09745D01*
X13711Y-09769D01*
X13763Y-09793D01*
X13868Y-09793D01*
X13920Y-09769D01*
X13946Y-09745D01*
X13973Y-09698D01*
X13973Y-09602D01*
X13946Y-09555D01*
X13920Y-09531D01*
X13868Y-09507D01*
X13763Y-09507D01*
X13711Y-09531D01*
X13685Y-09555D01*
X13658Y-09602D01*
X12473Y-09983D02*
X12211Y-10150D01*
X12473Y-10269D02*
X11923Y-10269D01*
X11923Y-10078D01*
X11949Y-10031D01*
X11975Y-10007D01*
X12027Y-09983D01*
X12106Y-09983D01*
X12158Y-10007D01*
X12185Y-10031D01*
X12211Y-10078D01*
X12211Y-10269D01*
X11923Y-09817D02*
X11923Y-09483D01*
X12473Y-09698D01*
X10973Y-09983D02*
X10711Y-10150D01*
X10973Y-10269D02*
X10423Y-10269D01*
X10423Y-10078D01*
X10449Y-10031D01*
X10475Y-10007D01*
X10527Y-09983D01*
X10606Y-09983D01*
X10658Y-10007D01*
X10685Y-10031D01*
X10711Y-10078D01*
X10711Y-10269D01*
X10423Y-09555D02*
X10423Y-09650D01*
X10449Y-09698D01*
X10475Y-09721D01*
X10554Y-09769D01*
X10658Y-09793D01*
X10868Y-09793D01*
X10920Y-09769D01*
X10946Y-09745D01*
X10973Y-09698D01*
X10973Y-09602D01*
X10946Y-09555D01*
X10920Y-09531D01*
X10868Y-09507D01*
X10737Y-09507D01*
X10685Y-09531D01*
X10658Y-09555D01*
X10632Y-09602D01*
X10632Y-09698D01*
X10658Y-09745D01*
X10685Y-09769D01*
X10737Y-09793D01*
X12217Y-02573D02*
X12050Y-02311D01*
X11931Y-02573D02*
X11931Y-02023D01*
X12122Y-02023D01*
X12169Y-02049D01*
X12193Y-02075D01*
X12217Y-02127D01*
X12217Y-02206D01*
X12193Y-02258D01*
X12169Y-02285D01*
X12122Y-02311D01*
X11931Y-02311D01*
X12645Y-02206D02*
X12645Y-02573D01*
X12526Y-01996D02*
X12407Y-02389D01*
X12717Y-02389D01*
X12217Y-03573D02*
X12050Y-03311D01*
X11931Y-03573D02*
X11931Y-03023D01*
X12122Y-03023D01*
X12169Y-03049D01*
X12193Y-03075D01*
X12217Y-03127D01*
X12217Y-03206D01*
X12193Y-03258D01*
X12169Y-03285D01*
X12122Y-03311D01*
X11931Y-03311D01*
X12383Y-03023D02*
X12693Y-03023D01*
X12526Y-03232D01*
X12598Y-03232D01*
X12645Y-03258D01*
X12669Y-03285D01*
X12693Y-03337D01*
X12693Y-03468D01*
X12669Y-03520D01*
X12645Y-03546D01*
X12598Y-03573D01*
X12455Y-03573D01*
X12407Y-03546D01*
X12383Y-03520D01*
X12217Y-12773D02*
X12050Y-12511D01*
X11931Y-12773D02*
X11931Y-12223D01*
X12122Y-12223D01*
X12169Y-12249D01*
X12193Y-12275D01*
X12217Y-12327D01*
X12217Y-12406D01*
X12193Y-12458D01*
X12169Y-12485D01*
X12122Y-12511D01*
X11931Y-12511D01*
X12693Y-12773D02*
X12407Y-12773D01*
X12550Y-12773D02*
X12550Y-12223D01*
X12502Y-12301D01*
X12455Y-12354D01*
X12407Y-12380D01*
G54D18*
X11978Y-07021D02*
X11978Y-06721D01*
X12050Y-06721D01*
X12093Y-06736D01*
X12121Y-06764D01*
X12136Y-06793D01*
X12150Y-06850D01*
X12150Y-06893D01*
X12136Y-06950D01*
X12121Y-06979D01*
X12093Y-07007D01*
X12050Y-07021D01*
X11978Y-07021D01*
X12250Y-06721D02*
X12436Y-06721D01*
X12336Y-06836D01*
X12378Y-06836D01*
X12407Y-06850D01*
X12421Y-06864D01*
X12436Y-06893D01*
X12436Y-06964D01*
X12421Y-06993D01*
X12407Y-07007D01*
X12378Y-07021D01*
X12293Y-07021D01*
X12264Y-07007D01*
X12250Y-06993D01*
X09178Y-07021D02*
X09178Y-06721D01*
X09250Y-06721D01*
X09293Y-06736D01*
X09321Y-06764D01*
X09336Y-06793D01*
X09350Y-06850D01*
X09350Y-06893D01*
X09336Y-06950D01*
X09321Y-06979D01*
X09293Y-07007D01*
X09250Y-07021D01*
X09178Y-07021D01*
X09464Y-06750D02*
X09478Y-06736D01*
X09507Y-06721D01*
X09578Y-06721D01*
X09607Y-06736D01*
X09621Y-06750D01*
X09636Y-06779D01*
X09636Y-06807D01*
X09621Y-06850D01*
X09450Y-07021D01*
X09636Y-07021D01*
X06378Y-07021D02*
X06378Y-06721D01*
X06450Y-06721D01*
X06493Y-06736D01*
X06521Y-06764D01*
X06536Y-06793D01*
X06550Y-06850D01*
X06550Y-06893D01*
X06536Y-06950D01*
X06521Y-06979D01*
X06493Y-07007D01*
X06450Y-07021D01*
X06378Y-07021D01*
X06836Y-07021D02*
X06664Y-07021D01*
X06750Y-07021D02*
X06750Y-06721D01*
X06721Y-06764D01*
X06693Y-06793D01*
X06664Y-06807D01*
G54D11*
X07957Y-02979D02*
X08021Y-03002D01*
X08128Y-03002D01*
X08171Y-02979D01*
X08192Y-02955D01*
X08214Y-02907D01*
X08214Y-02860D01*
X08192Y-02812D01*
X08171Y-02788D01*
X08128Y-02764D01*
X08042Y-02740D01*
X08000Y-02717D01*
X07978Y-02693D01*
X07957Y-02645D01*
X07957Y-02598D01*
X07978Y-02550D01*
X08000Y-02526D01*
X08042Y-02502D01*
X08150Y-02502D01*
X08214Y-02526D01*
X08643Y-03002D02*
X08386Y-03002D01*
X08514Y-03002D02*
X08514Y-02502D01*
X08471Y-02574D01*
X08429Y-02621D01*
X08386Y-02645D01*
G54D14*
X04650Y-06892D02*
X04636Y-06906D01*
X04593Y-06920D01*
X04564Y-06920D01*
X04521Y-06906D01*
X04493Y-06878D01*
X04478Y-06849D01*
X04464Y-06792D01*
X04464Y-06749D01*
X04478Y-06692D01*
X04493Y-06663D01*
X04521Y-06635D01*
X04564Y-06620D01*
X04593Y-06620D01*
X04636Y-06635D01*
X04650Y-06649D01*
X04936Y-06920D02*
X04764Y-06920D01*
X04850Y-06920D02*
X04850Y-06620D01*
X04821Y-06663D01*
X04793Y-06692D01*
X04764Y-06706D01*
X04551Y-05921D02*
X04409Y-05921D01*
X04480Y-05921D02*
X04480Y-05621D01*
X04456Y-05664D01*
X04432Y-05693D01*
X04409Y-05707D01*
X04766Y-05721D02*
X04766Y-05921D01*
X04659Y-05721D02*
X04659Y-05879D01*
X04670Y-05907D01*
X04694Y-05921D01*
X04730Y-05921D01*
X04754Y-05907D01*
X04766Y-05893D01*
X04968Y-05764D02*
X04885Y-05764D01*
X04885Y-05921D02*
X04885Y-05621D01*
X05004Y-05621D01*
G54D19*
X05486Y-06307D02*
X05715Y-06307D01*
X05601Y-06421D02*
X05601Y-06193D01*
G54D20*
X06120Y-14205D02*
X06120Y-14691D01*
X06148Y-14748D01*
X06177Y-14776D01*
X06234Y-14805D01*
X06348Y-14805D01*
X06406Y-14776D01*
X06434Y-14748D01*
X06463Y-14691D01*
X06463Y-14205D01*
X07063Y-14805D02*
X06720Y-14805D01*
X06892Y-14805D02*
X06892Y-14205D01*
X06835Y-14291D01*
X06777Y-14348D01*
X06720Y-14376D01*
X02543Y-12642D02*
X01943Y-12642D01*
X01943Y-12414D01*
X01971Y-12356D01*
X02000Y-12328D01*
X02057Y-12299D01*
X02143Y-12299D01*
X02200Y-12328D01*
X02229Y-12356D01*
X02257Y-12414D01*
X02257Y-12642D01*
X02543Y-11728D02*
X02543Y-12071D01*
X02543Y-11899D02*
X01943Y-11899D01*
X02029Y-11956D01*
X02086Y-12014D01*
X02114Y-12071D01*
X02543Y-19142D02*
X01943Y-19142D01*
X01943Y-18914D01*
X01971Y-18856D01*
X02000Y-18828D01*
X02057Y-18799D01*
X02143Y-18799D01*
X02200Y-18828D01*
X02229Y-18856D01*
X02257Y-18914D01*
X02257Y-19142D01*
X01943Y-18599D02*
X01943Y-18228D01*
X02171Y-18428D01*
X02171Y-18342D01*
X02200Y-18285D01*
X02229Y-18256D01*
X02286Y-18228D01*
X02429Y-18228D01*
X02486Y-18256D01*
X02514Y-18285D01*
X02543Y-18342D01*
X02543Y-18514D01*
X02514Y-18571D01*
X02486Y-18599D01*
X11243Y-16500D02*
X11671Y-16500D01*
X11757Y-16528D01*
X11814Y-16585D01*
X11843Y-16671D01*
X11843Y-16728D01*
X11843Y-15900D02*
X11843Y-16243D01*
X11843Y-16071D02*
X11243Y-16071D01*
X11329Y-16128D01*
X11386Y-16186D01*
X11414Y-16243D01*
M02*
