G04 (created by PCBNEW-RS274X (2011-nov-30)-testing) date Fri 09 Dec 2011 12:36:33 PM CST*
G01*
G70*
G90*
%MOIN*%
G04 Gerber Fmt 3.4, Leading zero omitted, Abs format*
%FSLAX34Y34*%
G04 APERTURE LIST*
%ADD10C,0.006000*%
%ADD11C,0.055000*%
%ADD12R,0.144000X0.080000*%
%ADD13R,0.040000X0.080000*%
%ADD14C,0.066000*%
%ADD15R,0.055000X0.055000*%
%ADD16R,0.051200X0.031500*%
%ADD17R,0.031500X0.051200*%
%ADD18R,0.140000X0.080000*%
%ADD19R,0.049200X0.023600*%
%ADD20R,0.149200X0.047200*%
%ADD21R,0.055100X0.057100*%
%ADD22R,0.023600X0.039400*%
%ADD23R,0.033500X0.037400*%
%ADD24C,0.035000*%
%ADD25C,0.008000*%
G04 APERTURE END LIST*
G54D10*
G54D11*
X10800Y-01300D03*
X13800Y-01300D03*
G54D12*
X04600Y-01500D03*
G54D13*
X04600Y-04100D03*
X05500Y-04100D03*
X03700Y-04100D03*
G54D11*
X10800Y-04300D03*
X13800Y-04300D03*
X13800Y-08400D03*
X13800Y-11400D03*
X12300Y-08400D03*
X12300Y-11400D03*
X10800Y-08400D03*
X10800Y-11400D03*
X10800Y-02300D03*
X13800Y-02300D03*
X10800Y-03300D03*
X13800Y-03300D03*
X13800Y-12600D03*
X10800Y-12600D03*
G54D14*
X13500Y-06300D03*
X12500Y-06300D03*
X10700Y-06300D03*
X09700Y-06300D03*
X07900Y-06300D03*
X06900Y-06300D03*
G54D15*
X09800Y-04300D03*
G54D11*
X09800Y-03300D03*
X09800Y-02300D03*
X09800Y-01300D03*
X06800Y-01300D03*
X06800Y-02300D03*
X06800Y-03300D03*
X06800Y-04300D03*
G54D15*
X05200Y-06300D03*
G54D11*
X04200Y-06300D03*
G54D16*
X03900Y-12160D03*
X03900Y-12632D03*
X03900Y-13105D03*
X03900Y-13577D03*
X03900Y-14050D03*
X03900Y-14522D03*
X03900Y-14995D03*
X03900Y-15467D03*
X03900Y-15940D03*
X03900Y-16412D03*
X03900Y-16884D03*
X03900Y-17357D03*
X09097Y-17357D03*
X09097Y-16884D03*
X09097Y-16412D03*
X09097Y-15940D03*
X09097Y-15467D03*
X09097Y-14995D03*
X09097Y-14522D03*
X09097Y-14050D03*
X09097Y-13577D03*
X09097Y-13105D03*
X09097Y-12632D03*
X09097Y-12160D03*
G54D17*
X08152Y-18459D03*
X07758Y-18459D03*
X07207Y-18459D03*
X06735Y-18459D03*
X06262Y-18459D03*
X05790Y-18459D03*
X05278Y-18459D03*
X04884Y-18459D03*
G54D18*
X00800Y-09200D03*
X00800Y-10200D03*
X00800Y-11200D03*
X00800Y-12200D03*
X00800Y-13200D03*
X00800Y-14200D03*
X00800Y-15200D03*
X00800Y-17200D03*
X00800Y-18200D03*
X00800Y-19200D03*
G54D19*
X12522Y-14784D03*
X12522Y-15217D03*
X12522Y-15650D03*
X12522Y-16083D03*
X12522Y-16517D03*
X12522Y-16950D03*
X12522Y-17383D03*
X12522Y-17816D03*
G54D20*
X13498Y-18269D03*
G54D21*
X13201Y-14144D03*
G54D22*
X13693Y-14056D03*
G54D23*
X14077Y-14420D03*
G54D24*
X06280Y-16650D03*
X04780Y-17730D03*
X03700Y-04930D03*
X11260Y-15220D03*
X02140Y-15200D03*
X10740Y-15570D03*
X02170Y-17590D03*
X10220Y-17280D03*
X02650Y-15690D03*
X06230Y-13080D03*
X07950Y-14410D03*
X10330Y-16310D03*
X08400Y-14830D03*
X02150Y-08110D03*
X05390Y-16990D03*
G54D25*
X13800Y-02300D02*
X13800Y-01300D01*
X05200Y-05882D02*
X05500Y-05582D01*
X05200Y-06300D02*
X05200Y-05882D01*
X14388Y-13188D02*
X14388Y-15017D01*
X04760Y-16650D02*
X06280Y-16650D01*
X13800Y-04300D02*
X13500Y-04600D01*
X14257Y-12143D02*
X14257Y-07057D01*
X13800Y-03300D02*
X13800Y-02300D01*
X13800Y-12600D02*
X14388Y-13188D01*
X13800Y-12600D02*
X14257Y-12143D01*
X05500Y-05582D02*
X05500Y-04100D01*
X13800Y-03300D02*
X13800Y-04300D01*
X13322Y-16083D02*
X12522Y-16083D01*
X14388Y-15017D02*
X13322Y-16083D01*
X13500Y-04600D02*
X13500Y-06300D01*
X14257Y-07057D02*
X13500Y-06300D01*
X03900Y-16884D02*
X04526Y-16884D01*
X04526Y-16884D02*
X04760Y-16650D01*
X04780Y-17730D02*
X03440Y-17730D01*
X01970Y-19200D02*
X00800Y-19200D01*
X03440Y-17730D02*
X01970Y-19200D01*
X03700Y-04100D02*
X03700Y-04930D01*
X11263Y-15217D02*
X12522Y-15217D01*
X11260Y-15220D02*
X11263Y-15217D01*
X00800Y-15200D02*
X02140Y-15200D01*
X10820Y-15650D02*
X12522Y-15650D01*
X10740Y-15570D02*
X10820Y-15650D01*
X01560Y-18200D02*
X02170Y-17590D01*
X00800Y-18200D02*
X01590Y-18200D01*
X00800Y-18200D02*
X01560Y-18200D01*
X10323Y-17383D02*
X12522Y-17383D01*
X10220Y-17280D02*
X10323Y-17383D01*
X09230Y-06660D02*
X10410Y-07840D01*
X09097Y-14050D02*
X10680Y-14050D01*
X11910Y-12820D02*
X11910Y-11800D01*
X08910Y-05410D02*
X06800Y-03300D01*
X11420Y-11310D02*
X11910Y-11800D01*
X10960Y-07840D02*
X11420Y-08300D01*
X10680Y-14050D02*
X11910Y-12820D01*
X09230Y-06660D02*
X08910Y-06340D01*
X11420Y-11310D02*
X11420Y-08300D01*
X08910Y-06340D02*
X08910Y-05410D01*
X10410Y-07840D02*
X10960Y-07840D01*
X09097Y-13105D02*
X09102Y-13110D01*
X08530Y-06030D02*
X06800Y-04300D01*
X09102Y-13110D02*
X09560Y-13110D01*
X09970Y-07960D02*
X08530Y-06520D01*
X09970Y-07960D02*
X09970Y-12700D01*
X09560Y-13110D02*
X09970Y-12700D01*
X08530Y-06520D02*
X08530Y-06030D01*
X02940Y-12720D02*
X02940Y-01320D01*
X06240Y-01740D02*
X06800Y-02300D01*
X02940Y-12720D02*
X03325Y-13105D01*
X03640Y-00620D02*
X05610Y-00620D01*
X03900Y-13105D02*
X03325Y-13105D01*
X05610Y-00620D02*
X06240Y-01250D01*
X06240Y-01740D02*
X06240Y-01250D01*
X02940Y-01320D02*
X03640Y-00620D01*
X03200Y-00370D02*
X05870Y-00370D01*
X05870Y-00370D02*
X06800Y-01300D01*
X02620Y-13120D02*
X03077Y-13577D01*
X02620Y-13120D02*
X02620Y-00950D01*
X03900Y-13577D02*
X03077Y-13577D01*
X02620Y-00950D02*
X03200Y-00370D01*
X02650Y-14580D02*
X02650Y-15690D01*
X03900Y-14050D02*
X03180Y-14050D01*
X05260Y-14050D02*
X06230Y-13080D01*
X03180Y-14050D02*
X02650Y-14580D01*
X05260Y-14050D02*
X03900Y-14050D01*
X08070Y-14530D02*
X08070Y-17100D01*
X09097Y-17357D02*
X08327Y-17357D01*
X08070Y-17100D02*
X08327Y-17357D01*
X08070Y-14530D02*
X07950Y-14410D01*
X10537Y-16517D02*
X12522Y-16517D01*
X10330Y-16310D02*
X10537Y-16517D01*
X08400Y-14830D02*
X08430Y-14860D01*
X08430Y-16720D02*
X08594Y-16884D01*
X08430Y-14860D02*
X08430Y-16720D01*
X08594Y-16884D02*
X09097Y-16884D01*
X09712Y-17568D02*
X09380Y-17900D01*
X09700Y-06300D02*
X11770Y-08370D01*
X09712Y-16287D02*
X09712Y-17568D01*
X11770Y-09301D02*
X12819Y-10350D01*
X07860Y-17900D02*
X07758Y-18002D01*
X10375Y-16950D02*
X09712Y-16287D01*
X09712Y-15940D02*
X09097Y-15940D01*
X11509Y-14144D02*
X09713Y-15940D01*
X09713Y-16286D02*
X09713Y-15940D01*
X09713Y-15940D02*
X09712Y-15940D01*
X09712Y-16287D02*
X09713Y-16286D01*
X00800Y-17200D02*
X02870Y-17200D01*
X05137Y-17243D02*
X05390Y-16990D01*
X03200Y-08180D02*
X03200Y-11900D01*
X07758Y-18002D02*
X07758Y-18459D01*
X03200Y-11900D02*
X03460Y-12160D01*
X13498Y-18269D02*
X12911Y-17682D01*
X14077Y-14420D02*
X13477Y-14420D01*
X02870Y-17200D02*
X03027Y-17357D01*
X04200Y-05043D02*
X04600Y-04643D01*
X05782Y-18002D02*
X05278Y-17498D01*
X05137Y-17357D02*
X05137Y-17243D01*
X05137Y-17357D02*
X03900Y-17357D01*
X05278Y-18459D02*
X05278Y-17498D01*
X11770Y-08370D02*
X11770Y-09301D01*
X13201Y-14144D02*
X11509Y-14144D01*
X12819Y-13762D02*
X12819Y-10350D01*
X01930Y-10200D02*
X00800Y-10200D01*
X05278Y-17498D02*
X05137Y-17357D01*
X07758Y-18002D02*
X05782Y-18002D01*
X12819Y-13762D02*
X13201Y-14144D01*
X03460Y-12160D02*
X03900Y-12160D01*
X09380Y-17900D02*
X07860Y-17900D01*
X12911Y-17682D02*
X12911Y-16950D01*
X12522Y-16950D02*
X10375Y-16950D01*
X04200Y-06300D02*
X04200Y-05043D01*
X04600Y-04100D02*
X04600Y-04643D01*
X13477Y-14420D02*
X13201Y-14144D01*
X00800Y-09200D02*
X01930Y-09200D01*
X12522Y-16950D02*
X12911Y-16950D01*
X04200Y-07180D02*
X03200Y-08180D01*
X01930Y-09200D02*
X02150Y-08980D01*
X01930Y-09200D02*
X01930Y-10200D01*
X04200Y-06300D02*
X04200Y-07180D01*
X02150Y-08980D02*
X02150Y-08110D01*
X04600Y-01500D02*
X04600Y-04100D01*
X03027Y-17357D02*
X03900Y-17357D01*
X09097Y-14522D02*
X09099Y-14520D01*
X10830Y-14520D02*
X12300Y-13050D01*
X12300Y-13050D02*
X12300Y-11400D01*
X09099Y-14520D02*
X10830Y-14520D01*
X12300Y-07900D02*
X12300Y-08400D01*
X10700Y-06300D02*
X12300Y-07900D01*
X13693Y-14056D02*
X13693Y-13713D01*
X13019Y-13039D02*
X13019Y-12181D01*
X13019Y-12181D02*
X13800Y-11400D01*
X13693Y-13713D02*
X13019Y-13039D01*
X12500Y-07100D02*
X13800Y-08400D01*
X12500Y-06300D02*
X12500Y-07100D01*
X09097Y-13577D02*
X09100Y-13580D01*
X11560Y-12160D02*
X10800Y-11400D01*
X11560Y-12630D02*
X11560Y-12160D01*
X10610Y-13580D02*
X11560Y-12630D01*
X09100Y-13580D02*
X10610Y-13580D01*
M02*
