G04 (created by PCBNEW-RS274X (2011-nov-30)-testing) date Fri 20 Jul 2012 01:00:30 PM CDT*
%MOIN*%
G04 Gerber Fmt 3.4, Leading zero omitted, Abs format*
%FSLAX34Y34*%
G01*
G70*
G90*
G04 APERTURE LIST*
%ADD10C,0.006*%
%ADD11C,0.01*%
G04 APERTURE END LIST*
G54D10*
G54D11*
X54891Y-36261D02*
X54889Y-36280D01*
X54883Y-36299D01*
X54874Y-36316D01*
X54861Y-36332D01*
X54846Y-36344D01*
X54829Y-36354D01*
X54810Y-36359D01*
X54790Y-36361D01*
X54772Y-36360D01*
X54753Y-36354D01*
X54735Y-36345D01*
X54720Y-36333D01*
X54707Y-36318D01*
X54698Y-36300D01*
X54692Y-36281D01*
X54690Y-36262D01*
X54691Y-36243D01*
X54697Y-36224D01*
X54706Y-36207D01*
X54718Y-36191D01*
X54733Y-36179D01*
X54750Y-36169D01*
X54769Y-36163D01*
X54788Y-36161D01*
X54807Y-36162D01*
X54826Y-36167D01*
X54844Y-36176D01*
X54859Y-36188D01*
X54872Y-36203D01*
X54882Y-36220D01*
X54888Y-36239D01*
X54890Y-36259D01*
X54891Y-36261D01*
X54990Y-38240D02*
X54990Y-36060D01*
X53590Y-36060D02*
X53590Y-38240D01*
X54990Y-36060D02*
X53590Y-36060D01*
X53590Y-38240D02*
X54990Y-38240D01*
X53992Y-36769D02*
X54397Y-36769D01*
X54445Y-36793D01*
X54469Y-36817D01*
X54492Y-36864D01*
X54492Y-36960D01*
X54469Y-37007D01*
X54445Y-37031D01*
X54397Y-37055D01*
X53992Y-37055D01*
X54040Y-37269D02*
X54016Y-37293D01*
X53992Y-37341D01*
X53992Y-37460D01*
X54016Y-37507D01*
X54040Y-37531D01*
X54088Y-37555D01*
X54135Y-37555D01*
X54207Y-37531D01*
X54492Y-37245D01*
X54492Y-37555D01*
M02*
