G04 (created by PCBNEW-RS274X (2011-nov-30)-testing) date Fri 20 Jul 2012 01:00:30 PM CDT*
%MOIN*%
G04 Gerber Fmt 3.4, Leading zero omitted, Abs format*
%FSLAX34Y34*%
G01*
G70*
G90*
G04 APERTURE LIST*
%ADD10C,0.006*%
G04 APERTURE END LIST*
G54D10*
X46580Y-46280D02*
X46580Y-33030D01*
X60080Y-47780D02*
X48080Y-47780D01*
X61570Y-33030D02*
X61570Y-46280D01*
X48080Y-31530D02*
X60080Y-31530D01*
X60070Y-47780D02*
X60200Y-47774D01*
X60330Y-47757D01*
X60458Y-47728D01*
X60583Y-47689D01*
X60703Y-47639D01*
X60820Y-47579D01*
X60930Y-47508D01*
X61034Y-47429D01*
X61130Y-47340D01*
X61219Y-47244D01*
X61298Y-47140D01*
X61369Y-47029D01*
X61429Y-46913D01*
X61479Y-46793D01*
X61518Y-46668D01*
X61547Y-46540D01*
X61564Y-46410D01*
X61570Y-46280D01*
X46580Y-46280D02*
X46586Y-46410D01*
X46603Y-46540D01*
X46632Y-46668D01*
X46671Y-46793D01*
X46721Y-46913D01*
X46781Y-47029D01*
X46852Y-47140D01*
X46931Y-47244D01*
X47020Y-47340D01*
X47116Y-47429D01*
X47220Y-47508D01*
X47331Y-47579D01*
X47447Y-47639D01*
X47567Y-47689D01*
X47692Y-47728D01*
X47820Y-47757D01*
X47950Y-47774D01*
X48080Y-47780D01*
X48080Y-31530D02*
X47950Y-31536D01*
X47820Y-31553D01*
X47692Y-31582D01*
X47567Y-31621D01*
X47447Y-31671D01*
X47331Y-31731D01*
X47220Y-31802D01*
X47116Y-31881D01*
X47020Y-31970D01*
X46931Y-32066D01*
X46852Y-32170D01*
X46781Y-32281D01*
X46721Y-32397D01*
X46671Y-32517D01*
X46632Y-32642D01*
X46603Y-32770D01*
X46586Y-32900D01*
X46580Y-33030D01*
X61570Y-33030D02*
X61564Y-32900D01*
X61547Y-32770D01*
X61518Y-32642D01*
X61479Y-32517D01*
X61429Y-32397D01*
X61369Y-32281D01*
X61298Y-32170D01*
X61219Y-32066D01*
X61130Y-31970D01*
X61034Y-31881D01*
X60930Y-31802D01*
X60820Y-31731D01*
X60703Y-31671D01*
X60583Y-31621D01*
X60458Y-31582D01*
X60330Y-31553D01*
X60200Y-31536D01*
X60070Y-31530D01*
M02*
