G04 (created by PCBNEW-RS274X (2011-nov-30)-testing) date Fri 20 Jul 2012 01:00:30 PM CDT*
%MOIN*%
G04 Gerber Fmt 3.4, Leading zero omitted, Abs format*
%FSLAX34Y34*%
G01*
G70*
G90*
G04 APERTURE LIST*
%ADD10C,0.006*%
%ADD11R,0.144X0.08*%
%ADD12R,0.04X0.08*%
%ADD13R,0.08X0.06*%
%ADD14R,0.035X0.055*%
%ADD15R,0.055X0.035*%
%ADD16R,0.0492X0.0236*%
%ADD17R,0.1492X0.0472*%
%ADD18R,0.0551X0.0571*%
%ADD19R,0.0236X0.0394*%
%ADD20R,0.0335X0.0374*%
%ADD21R,0.0787X0.0276*%
%ADD22R,0.0276X0.0787*%
%ADD23R,0.14X0.08*%
%ADD24C,0.035*%
%ADD25C,0.008*%
G04 APERTURE END LIST*
G54D10*
G54D11*
X59820Y-45990D03*
G54D12*
X59820Y-43390D03*
X58920Y-43390D03*
X60720Y-43390D03*
G54D13*
X60550Y-41600D03*
X60550Y-40300D03*
G54D14*
X60145Y-39090D03*
X59395Y-39090D03*
G54D13*
X58990Y-40300D03*
X58990Y-41600D03*
G54D15*
X49690Y-36565D03*
X49690Y-37315D03*
X49690Y-34835D03*
X49690Y-35585D03*
G54D16*
X59542Y-34024D03*
X59542Y-34457D03*
X59542Y-34890D03*
X59542Y-35323D03*
X59542Y-35757D03*
X59542Y-36190D03*
X59542Y-36623D03*
X59542Y-37056D03*
G54D17*
X60518Y-37509D03*
G54D18*
X60221Y-33384D03*
G54D19*
X60713Y-33296D03*
G54D20*
X61097Y-33660D03*
G54D21*
X56940Y-46900D03*
X56940Y-46309D03*
X56940Y-45719D03*
X56940Y-45128D03*
X56940Y-44538D03*
X56940Y-43947D03*
X56940Y-43357D03*
X56940Y-42766D03*
X56940Y-42176D03*
X56940Y-41585D03*
X56940Y-40994D03*
X56940Y-40404D03*
X56940Y-39813D03*
X56940Y-39223D03*
X56940Y-38632D03*
X56940Y-38042D03*
X56940Y-37451D03*
X56940Y-36861D03*
X56940Y-36270D03*
X56940Y-35680D03*
X56940Y-35089D03*
X56940Y-34498D03*
G54D22*
X56074Y-33829D03*
X55483Y-33829D03*
X54893Y-33829D03*
X54302Y-33829D03*
X53712Y-33829D03*
X53121Y-33829D03*
X52531Y-33829D03*
G54D21*
X51664Y-34498D03*
X51664Y-35089D03*
X51664Y-35680D03*
X51664Y-36270D03*
X51664Y-36861D03*
X51664Y-37451D03*
X51664Y-38042D03*
X51664Y-38632D03*
X51664Y-39223D03*
X51664Y-39813D03*
X51664Y-40404D03*
X51664Y-40994D03*
X51664Y-41585D03*
X51664Y-42176D03*
X51664Y-42766D03*
X51664Y-43357D03*
X51664Y-43947D03*
X51664Y-44538D03*
X51664Y-45128D03*
G54D22*
X52531Y-47294D03*
X53121Y-47294D03*
X53712Y-47294D03*
X54302Y-47294D03*
X54893Y-47294D03*
X55483Y-47294D03*
X56074Y-47294D03*
G54D23*
X47350Y-34280D03*
X47350Y-35280D03*
X47350Y-36280D03*
X47350Y-37280D03*
X47350Y-38280D03*
X47350Y-39280D03*
X47350Y-40280D03*
X47350Y-42280D03*
X47350Y-43280D03*
X47350Y-44280D03*
G54D24*
X54420Y-36510D03*
X54730Y-39310D03*
X48670Y-36080D03*
X58130Y-43360D03*
X58010Y-34650D03*
X48590Y-40100D03*
X58710Y-34890D03*
X48610Y-42940D03*
X58680Y-36620D03*
X49370Y-40920D03*
X56100Y-36340D03*
X58540Y-35750D03*
X54190Y-38160D03*
X59030Y-32610D03*
X48770Y-34690D03*
X58810Y-37820D03*
X54890Y-46580D03*
X53710Y-46580D03*
X49120Y-44690D03*
X57650Y-42770D03*
X50040Y-34020D03*
X56070Y-46580D03*
X50950Y-42770D03*
X48770Y-34020D03*
X57650Y-38630D03*
X57650Y-45130D03*
X52530Y-46580D03*
X56940Y-33980D03*
X50950Y-43950D03*
X54300Y-33110D03*
X50950Y-45130D03*
X59820Y-45210D03*
X60220Y-42440D03*
X51660Y-33980D03*
X52600Y-38540D03*
X57650Y-43950D03*
X57650Y-46310D03*
G54D25*
X59542Y-35323D02*
X58034Y-35323D01*
X54730Y-40020D02*
X54730Y-39310D01*
X58920Y-43390D02*
X58920Y-42359D01*
X52999Y-35089D02*
X51664Y-35089D01*
X57896Y-37804D02*
X57896Y-35461D01*
X56940Y-41585D02*
X57625Y-41585D01*
X60550Y-40810D02*
X60380Y-40980D01*
X58399Y-42359D02*
X58920Y-42359D01*
X59760Y-41850D02*
X59251Y-42359D01*
X60145Y-39508D02*
X60201Y-39508D01*
X60145Y-38545D02*
X60145Y-39090D01*
X56295Y-41585D02*
X54730Y-40020D01*
X59760Y-41290D02*
X59760Y-41850D01*
X57896Y-35461D02*
X58034Y-35323D01*
X57625Y-41585D02*
X58399Y-42359D01*
X59751Y-38151D02*
X60145Y-38545D01*
X60201Y-39508D02*
X60550Y-39857D01*
X54420Y-36510D02*
X52999Y-35089D01*
X60550Y-40300D02*
X60550Y-39857D01*
X60550Y-40300D02*
X60550Y-40810D01*
X60070Y-40980D02*
X59760Y-41290D01*
X60145Y-39090D02*
X60145Y-39508D01*
X58243Y-38151D02*
X57896Y-37804D01*
X60380Y-40980D02*
X60070Y-40980D01*
X58243Y-38151D02*
X59751Y-38151D01*
X56940Y-41585D02*
X56295Y-41585D01*
X59251Y-42359D02*
X58920Y-42359D01*
X60470Y-44380D02*
X58580Y-44380D01*
X48250Y-44280D02*
X47350Y-44280D01*
X48250Y-44280D02*
X48590Y-44620D01*
X48870Y-45260D02*
X49430Y-45260D01*
X58130Y-43360D02*
X58130Y-43930D01*
X58580Y-44380D02*
X58130Y-43930D01*
X49430Y-45260D02*
X49700Y-44990D01*
X47350Y-44280D02*
X48010Y-44280D01*
X60720Y-44130D02*
X60470Y-44380D01*
X60720Y-43390D02*
X60720Y-44130D01*
X48590Y-44620D02*
X48590Y-44980D01*
X48590Y-44980D02*
X48870Y-45260D01*
X48990Y-39580D02*
X48670Y-39260D01*
X49700Y-44990D02*
X49700Y-42270D01*
X49700Y-42270D02*
X48990Y-41560D01*
X48990Y-41560D02*
X48990Y-39580D01*
X48670Y-36080D02*
X48670Y-39260D01*
X59542Y-34457D02*
X58203Y-34457D01*
X58010Y-34650D02*
X58203Y-34457D01*
X48410Y-40280D02*
X48590Y-40100D01*
X48410Y-40280D02*
X47350Y-40280D01*
X58710Y-34890D02*
X59542Y-34890D01*
X47350Y-43280D02*
X48270Y-43280D01*
X48610Y-42940D02*
X48270Y-43280D01*
X59542Y-36623D02*
X58683Y-36623D01*
X58683Y-36623D02*
X58680Y-36620D01*
X49690Y-40600D02*
X49690Y-37315D01*
X49370Y-40920D02*
X49690Y-40600D01*
X56200Y-36440D02*
X56200Y-39090D01*
X56200Y-39090D02*
X56333Y-39223D01*
X56333Y-39223D02*
X56940Y-39223D01*
X56100Y-36340D02*
X56200Y-36440D01*
X58547Y-35757D02*
X59542Y-35757D01*
X58540Y-35750D02*
X58547Y-35757D01*
X54190Y-38160D02*
X54190Y-39540D01*
X54190Y-39540D02*
X52736Y-40994D01*
X51664Y-40994D02*
X52736Y-40994D01*
X59960Y-36190D02*
X60221Y-35929D01*
X50954Y-42766D02*
X50950Y-42770D01*
X56940Y-46309D02*
X56940Y-46900D01*
X56940Y-45128D02*
X57648Y-45128D01*
X56940Y-45719D02*
X56940Y-46309D01*
X53712Y-47294D02*
X54302Y-47294D01*
X47350Y-34280D02*
X48510Y-34280D01*
X56940Y-38632D02*
X57648Y-38632D01*
X56940Y-34498D02*
X56940Y-33980D01*
X48180Y-35280D02*
X48770Y-34690D01*
X47350Y-35280D02*
X48180Y-35280D01*
X51664Y-43357D02*
X51664Y-42766D01*
X51664Y-43947D02*
X50953Y-43947D01*
X57648Y-38632D02*
X57650Y-38630D01*
X60518Y-36748D02*
X59960Y-36190D01*
X51664Y-45128D02*
X51664Y-44538D01*
X51664Y-45128D02*
X50952Y-45128D01*
X57646Y-42766D02*
X57650Y-42770D01*
X53121Y-47294D02*
X53712Y-47294D01*
X49690Y-34835D02*
X49690Y-34370D01*
X53712Y-46582D02*
X53710Y-46580D01*
X59542Y-36190D02*
X59960Y-36190D01*
X59820Y-42840D02*
X60220Y-42440D01*
X59804Y-33384D02*
X59030Y-32610D01*
X51664Y-42766D02*
X51664Y-42176D01*
X60550Y-42110D02*
X60550Y-41600D01*
X51811Y-33829D02*
X51660Y-33980D01*
X51664Y-44538D02*
X51664Y-43947D01*
X53712Y-33829D02*
X54302Y-33829D01*
X49690Y-34370D02*
X50040Y-34020D01*
X60221Y-35929D02*
X60221Y-33384D01*
X56940Y-44538D02*
X56940Y-45128D01*
X56939Y-46310D02*
X56940Y-46309D01*
X56940Y-42766D02*
X56940Y-43357D01*
X56074Y-46584D02*
X56070Y-46580D01*
X60518Y-37509D02*
X60518Y-36748D01*
X60518Y-37509D02*
X59121Y-37509D01*
X60221Y-33384D02*
X59804Y-33384D01*
X56940Y-43357D02*
X56940Y-43947D01*
X56940Y-42176D02*
X56940Y-42766D01*
X54302Y-33112D02*
X54300Y-33110D01*
X54302Y-33829D02*
X54893Y-33829D01*
X51660Y-33980D02*
X51660Y-34494D01*
X52531Y-46581D02*
X52530Y-46580D01*
X55483Y-47294D02*
X56074Y-47294D01*
X52531Y-33829D02*
X51811Y-33829D01*
X54893Y-47294D02*
X54893Y-46583D01*
X51664Y-42766D02*
X50954Y-42766D01*
X54302Y-47294D02*
X54893Y-47294D01*
X52251Y-37451D02*
X52460Y-37660D01*
X52531Y-47294D02*
X53121Y-47294D01*
X51664Y-37451D02*
X52251Y-37451D01*
X56940Y-42766D02*
X57646Y-42766D01*
X54893Y-46583D02*
X54890Y-46580D01*
X59820Y-45990D02*
X59820Y-45210D01*
X52460Y-38400D02*
X52600Y-38540D01*
X51660Y-34494D02*
X51664Y-34498D01*
X49120Y-42590D02*
X49120Y-44690D01*
X48810Y-42280D02*
X49120Y-42590D01*
X47350Y-42280D02*
X48810Y-42280D01*
X60220Y-42440D02*
X60550Y-42110D01*
X57649Y-46309D02*
X57650Y-46310D01*
X53712Y-47294D02*
X53712Y-46582D01*
X56940Y-46309D02*
X57649Y-46309D01*
X51664Y-43947D02*
X51664Y-43357D01*
X50953Y-43947D02*
X50950Y-43950D01*
X54302Y-33829D02*
X54302Y-33112D01*
X56940Y-43947D02*
X57647Y-43947D01*
X56074Y-47294D02*
X56074Y-46584D01*
X59820Y-43390D02*
X59820Y-42840D01*
X54893Y-47294D02*
X55483Y-47294D01*
X52531Y-47294D02*
X52531Y-46581D01*
X48510Y-34280D02*
X48770Y-34020D01*
X52460Y-37660D02*
X52460Y-38400D01*
X56789Y-33829D02*
X56074Y-33829D01*
X56940Y-43947D02*
X56940Y-44538D01*
X56940Y-45128D02*
X56940Y-45719D01*
X59121Y-37509D02*
X58810Y-37820D01*
X56940Y-33980D02*
X56789Y-33829D01*
X57647Y-43947D02*
X57650Y-43950D01*
X50952Y-45128D02*
X50950Y-45130D01*
X57648Y-45128D02*
X57650Y-45130D01*
X58990Y-39857D02*
X59339Y-39508D01*
X59395Y-39090D02*
X59395Y-39508D01*
X58990Y-40300D02*
X58990Y-39857D01*
X59339Y-39508D02*
X59395Y-39508D01*
X50680Y-35680D02*
X50585Y-35585D01*
X49690Y-36565D02*
X49690Y-35585D01*
X51664Y-35680D02*
X50680Y-35680D01*
X50585Y-35585D02*
X49690Y-35585D01*
X58854Y-40994D02*
X58990Y-41130D01*
X56940Y-40994D02*
X58854Y-40994D01*
X58990Y-41130D02*
X58990Y-41600D01*
M02*
