G04 (created by PCBNEW-RS274X (2011-nov-30)-testing) date Fri 20 Jul 2012 01:00:30 PM CDT*
%MOIN*%
G04 Gerber Fmt 3.4, Leading zero omitted, Abs format*
%FSLAX34Y34*%
G01*
G70*
G90*
G04 APERTURE LIST*
%ADD10C,0.006*%
%ADD11R,0.156X0.092*%
%ADD12R,0.052X0.092*%
%ADD13R,0.092X0.072*%
%ADD14R,0.047X0.067*%
%ADD15R,0.067X0.047*%
%ADD16R,0.0612X0.0356*%
%ADD17R,0.1612X0.0592*%
%ADD18R,0.0671X0.0691*%
%ADD19R,0.0356X0.0514*%
%ADD20R,0.0455X0.0494*%
%ADD21R,0.0907X0.0396*%
%ADD22R,0.0396X0.0907*%
%ADD23R,0.152X0.092*%
G04 APERTURE END LIST*
G54D10*
G54D11*
X59820Y-45990D03*
G54D12*
X59820Y-43390D03*
X58920Y-43390D03*
X60720Y-43390D03*
G54D13*
X60550Y-41600D03*
X60550Y-40300D03*
G54D14*
X60145Y-39090D03*
X59395Y-39090D03*
G54D13*
X58990Y-40300D03*
X58990Y-41600D03*
G54D15*
X49690Y-36565D03*
X49690Y-37315D03*
X49690Y-34835D03*
X49690Y-35585D03*
G54D16*
X59542Y-34024D03*
X59542Y-34457D03*
X59542Y-34890D03*
X59542Y-35323D03*
X59542Y-35757D03*
X59542Y-36190D03*
X59542Y-36623D03*
X59542Y-37056D03*
G54D17*
X60518Y-37509D03*
G54D18*
X60221Y-33384D03*
G54D19*
X60713Y-33296D03*
G54D20*
X61097Y-33660D03*
G54D21*
X56940Y-46900D03*
X56940Y-46309D03*
X56940Y-45719D03*
X56940Y-45128D03*
X56940Y-44538D03*
X56940Y-43947D03*
X56940Y-43357D03*
X56940Y-42766D03*
X56940Y-42176D03*
X56940Y-41585D03*
X56940Y-40994D03*
X56940Y-40404D03*
X56940Y-39813D03*
X56940Y-39223D03*
X56940Y-38632D03*
X56940Y-38042D03*
X56940Y-37451D03*
X56940Y-36861D03*
X56940Y-36270D03*
X56940Y-35680D03*
X56940Y-35089D03*
X56940Y-34498D03*
G54D22*
X56074Y-33829D03*
X55483Y-33829D03*
X54893Y-33829D03*
X54302Y-33829D03*
X53712Y-33829D03*
X53121Y-33829D03*
X52531Y-33829D03*
G54D21*
X51664Y-34498D03*
X51664Y-35089D03*
X51664Y-35680D03*
X51664Y-36270D03*
X51664Y-36861D03*
X51664Y-37451D03*
X51664Y-38042D03*
X51664Y-38632D03*
X51664Y-39223D03*
X51664Y-39813D03*
X51664Y-40404D03*
X51664Y-40994D03*
X51664Y-41585D03*
X51664Y-42176D03*
X51664Y-42766D03*
X51664Y-43357D03*
X51664Y-43947D03*
X51664Y-44538D03*
X51664Y-45128D03*
G54D22*
X52531Y-47294D03*
X53121Y-47294D03*
X53712Y-47294D03*
X54302Y-47294D03*
X54893Y-47294D03*
X55483Y-47294D03*
X56074Y-47294D03*
G54D23*
X47350Y-34280D03*
X47350Y-35280D03*
X47350Y-36280D03*
X47350Y-37280D03*
X47350Y-38280D03*
X47350Y-39280D03*
X47350Y-40280D03*
X47350Y-42280D03*
X47350Y-43280D03*
X47350Y-44280D03*
M02*
