G04 (created by PCBNEW-RS274X (2011-nov-30)-testing) date Fri 20 Jul 2012 01:00:30 PM CDT*
%MOIN*%
G04 Gerber Fmt 3.4, Leading zero omitted, Abs format*
%FSLAX34Y34*%
G01*
G70*
G90*
G04 APERTURE LIST*
%ADD10C,0.006*%
%ADD11C,0.005*%
%ADD12C,0.008*%
%ADD13C,0.01*%
G04 APERTURE END LIST*
G54D10*
G54D11*
X50063Y-39217D02*
X50048Y-39259D01*
X50048Y-39330D01*
X50063Y-39359D01*
X50077Y-39373D01*
X50105Y-39387D01*
X50134Y-39387D01*
X50162Y-39373D01*
X50176Y-39359D01*
X50190Y-39330D01*
X50204Y-39274D01*
X50219Y-39245D01*
X50233Y-39231D01*
X50261Y-39217D01*
X50290Y-39217D01*
X50318Y-39231D01*
X50332Y-39245D01*
X50346Y-39274D01*
X50346Y-39344D01*
X50332Y-39387D01*
X50048Y-39643D02*
X50204Y-39643D01*
X50233Y-39628D01*
X50247Y-39600D01*
X50247Y-39543D01*
X50233Y-39515D01*
X50063Y-39643D02*
X50048Y-39614D01*
X50048Y-39543D01*
X50063Y-39515D01*
X50091Y-39501D01*
X50119Y-39501D01*
X50148Y-39515D01*
X50162Y-39543D01*
X50162Y-39614D01*
X50176Y-39643D01*
X50247Y-39785D02*
X50048Y-39785D01*
X50219Y-39785D02*
X50233Y-39799D01*
X50247Y-39828D01*
X50247Y-39870D01*
X50233Y-39898D01*
X50204Y-39913D01*
X50048Y-39913D01*
X50247Y-40183D02*
X50006Y-40183D01*
X49977Y-40168D01*
X49963Y-40154D01*
X49949Y-40126D01*
X49949Y-40083D01*
X49963Y-40055D01*
X50063Y-40183D02*
X50048Y-40154D01*
X50048Y-40098D01*
X50063Y-40069D01*
X50077Y-40055D01*
X50105Y-40041D01*
X50190Y-40041D01*
X50219Y-40055D01*
X50233Y-40069D01*
X50247Y-40098D01*
X50247Y-40154D01*
X50233Y-40183D01*
X50247Y-40453D02*
X50048Y-40453D01*
X50247Y-40325D02*
X50091Y-40325D01*
X50063Y-40339D01*
X50048Y-40368D01*
X50048Y-40410D01*
X50063Y-40438D01*
X50077Y-40453D01*
X50048Y-40595D02*
X50247Y-40595D01*
X50346Y-40595D02*
X50332Y-40581D01*
X50318Y-40595D01*
X50332Y-40609D01*
X50346Y-40595D01*
X50318Y-40595D01*
X50247Y-40737D02*
X50048Y-40737D01*
X50219Y-40737D02*
X50233Y-40751D01*
X50247Y-40780D01*
X50247Y-40822D01*
X50233Y-40850D01*
X50204Y-40865D01*
X50048Y-40865D01*
X50048Y-41050D02*
X50063Y-41021D01*
X50077Y-41007D01*
X50105Y-40993D01*
X50190Y-40993D01*
X50219Y-41007D01*
X50233Y-41021D01*
X50247Y-41050D01*
X50247Y-41092D01*
X50233Y-41120D01*
X50219Y-41135D01*
X50190Y-41149D01*
X50105Y-41149D01*
X50077Y-41135D01*
X50063Y-41120D01*
X50048Y-41092D01*
X50048Y-41050D01*
X50048Y-41320D02*
X50063Y-41291D01*
X50091Y-41277D01*
X50346Y-41277D01*
X50048Y-41476D02*
X50063Y-41447D01*
X50077Y-41433D01*
X50105Y-41419D01*
X50190Y-41419D01*
X50219Y-41433D01*
X50233Y-41447D01*
X50247Y-41476D01*
X50247Y-41518D01*
X50233Y-41546D01*
X50219Y-41561D01*
X50190Y-41575D01*
X50105Y-41575D01*
X50077Y-41561D01*
X50063Y-41546D01*
X50048Y-41518D01*
X50048Y-41476D01*
X50048Y-41746D02*
X50063Y-41717D01*
X50091Y-41703D01*
X50346Y-41703D01*
X50247Y-41987D02*
X50048Y-41987D01*
X50247Y-41859D02*
X50091Y-41859D01*
X50063Y-41873D01*
X50048Y-41902D01*
X50048Y-41944D01*
X50063Y-41972D01*
X50077Y-41987D01*
X50346Y-42328D02*
X50048Y-42399D01*
X50261Y-42455D01*
X50048Y-42512D01*
X50346Y-42583D01*
X50048Y-42697D02*
X50247Y-42697D01*
X50346Y-42697D02*
X50332Y-42683D01*
X50318Y-42697D01*
X50332Y-42711D01*
X50346Y-42697D01*
X50318Y-42697D01*
X50048Y-42839D02*
X50247Y-42839D01*
X50190Y-42839D02*
X50219Y-42853D01*
X50233Y-42867D01*
X50247Y-42896D01*
X50247Y-42924D01*
X50063Y-43136D02*
X50048Y-43108D01*
X50048Y-43051D01*
X50063Y-43023D01*
X50091Y-43009D01*
X50204Y-43009D01*
X50233Y-43023D01*
X50247Y-43051D01*
X50247Y-43108D01*
X50233Y-43136D01*
X50204Y-43151D01*
X50176Y-43151D01*
X50148Y-43009D01*
X50048Y-43321D02*
X50063Y-43292D01*
X50091Y-43278D01*
X50346Y-43278D01*
X50063Y-43547D02*
X50048Y-43519D01*
X50048Y-43462D01*
X50063Y-43434D01*
X50091Y-43420D01*
X50204Y-43420D01*
X50233Y-43434D01*
X50247Y-43462D01*
X50247Y-43519D01*
X50233Y-43547D01*
X50204Y-43562D01*
X50176Y-43562D01*
X50148Y-43420D01*
X50063Y-43675D02*
X50048Y-43703D01*
X50048Y-43760D01*
X50063Y-43788D01*
X50091Y-43802D01*
X50105Y-43802D01*
X50134Y-43788D01*
X50148Y-43760D01*
X50148Y-43717D01*
X50162Y-43689D01*
X50190Y-43675D01*
X50204Y-43675D01*
X50233Y-43689D01*
X50247Y-43717D01*
X50247Y-43760D01*
X50233Y-43788D01*
X50063Y-43916D02*
X50048Y-43944D01*
X50048Y-44001D01*
X50063Y-44029D01*
X50091Y-44043D01*
X50105Y-44043D01*
X50134Y-44029D01*
X50148Y-44001D01*
X50148Y-43958D01*
X50162Y-43930D01*
X50190Y-43916D01*
X50204Y-43916D01*
X50233Y-43930D01*
X50247Y-43958D01*
X50247Y-44001D01*
X50233Y-44029D01*
X50134Y-44384D02*
X50134Y-44526D01*
X50048Y-44355D02*
X50346Y-44455D01*
X50048Y-44554D01*
X50048Y-44781D02*
X50346Y-44781D01*
X50063Y-44781D02*
X50048Y-44752D01*
X50048Y-44696D01*
X50063Y-44667D01*
X50077Y-44653D01*
X50105Y-44639D01*
X50190Y-44639D01*
X50219Y-44653D01*
X50233Y-44667D01*
X50247Y-44696D01*
X50247Y-44752D01*
X50233Y-44781D01*
X50048Y-45051D02*
X50204Y-45051D01*
X50233Y-45036D01*
X50247Y-45008D01*
X50247Y-44951D01*
X50233Y-44923D01*
X50063Y-45051D02*
X50048Y-45022D01*
X50048Y-44951D01*
X50063Y-44923D01*
X50091Y-44909D01*
X50119Y-44909D01*
X50148Y-44923D01*
X50162Y-44951D01*
X50162Y-45022D01*
X50176Y-45051D01*
X50247Y-45193D02*
X49949Y-45193D01*
X50233Y-45193D02*
X50247Y-45221D01*
X50247Y-45278D01*
X50233Y-45306D01*
X50219Y-45321D01*
X50190Y-45335D01*
X50105Y-45335D01*
X50077Y-45321D01*
X50063Y-45306D01*
X50048Y-45278D01*
X50048Y-45221D01*
X50063Y-45193D01*
X50247Y-45420D02*
X50247Y-45534D01*
X50346Y-45463D02*
X50091Y-45463D01*
X50063Y-45477D01*
X50048Y-45506D01*
X50048Y-45534D01*
X50063Y-45746D02*
X50048Y-45718D01*
X50048Y-45661D01*
X50063Y-45633D01*
X50091Y-45619D01*
X50204Y-45619D01*
X50233Y-45633D01*
X50247Y-45661D01*
X50247Y-45718D01*
X50233Y-45746D01*
X50204Y-45761D01*
X50176Y-45761D01*
X50148Y-45619D01*
X50048Y-45888D02*
X50247Y-45888D01*
X50190Y-45888D02*
X50219Y-45902D01*
X50233Y-45916D01*
X50247Y-45945D01*
X50247Y-45973D01*
X49581Y-41963D02*
X49723Y-41864D01*
X49581Y-41793D02*
X49879Y-41793D01*
X49879Y-41906D01*
X49865Y-41935D01*
X49851Y-41949D01*
X49823Y-41963D01*
X49780Y-41963D01*
X49752Y-41949D01*
X49737Y-41935D01*
X49723Y-41906D01*
X49723Y-41793D01*
X49596Y-42204D02*
X49581Y-42176D01*
X49581Y-42119D01*
X49596Y-42091D01*
X49624Y-42077D01*
X49737Y-42077D01*
X49766Y-42091D01*
X49780Y-42119D01*
X49780Y-42176D01*
X49766Y-42204D01*
X49737Y-42219D01*
X49709Y-42219D01*
X49681Y-42077D01*
X49780Y-42318D02*
X49581Y-42389D01*
X49780Y-42459D01*
X49851Y-42786D02*
X49865Y-42800D01*
X49879Y-42828D01*
X49879Y-42899D01*
X49865Y-42928D01*
X49851Y-42942D01*
X49823Y-42956D01*
X49794Y-42956D01*
X49752Y-42942D01*
X49581Y-42772D01*
X49581Y-42956D01*
X49610Y-43084D02*
X49596Y-43098D01*
X49581Y-43084D01*
X49596Y-43070D01*
X49610Y-43084D01*
X49581Y-43084D01*
X49879Y-43283D02*
X49879Y-43311D01*
X49865Y-43339D01*
X49851Y-43354D01*
X49823Y-43368D01*
X49766Y-43382D01*
X49695Y-43382D01*
X49638Y-43368D01*
X49610Y-43354D01*
X49596Y-43339D01*
X49581Y-43311D01*
X49581Y-43283D01*
X49596Y-43254D01*
X49610Y-43240D01*
X49638Y-43226D01*
X49695Y-43212D01*
X49766Y-43212D01*
X49823Y-43226D01*
X49851Y-43240D01*
X49865Y-43254D01*
X49879Y-43283D01*
X49412Y-38955D02*
X49412Y-39011D01*
X49398Y-39040D01*
X49370Y-39068D01*
X49313Y-39082D01*
X49214Y-39082D01*
X49157Y-39068D01*
X49129Y-39040D01*
X49114Y-39011D01*
X49114Y-38955D01*
X49129Y-38926D01*
X49157Y-38898D01*
X49214Y-38884D01*
X49313Y-38884D01*
X49370Y-38898D01*
X49398Y-38926D01*
X49412Y-38955D01*
X49114Y-39210D02*
X49412Y-39210D01*
X49412Y-39281D01*
X49398Y-39323D01*
X49370Y-39352D01*
X49341Y-39366D01*
X49285Y-39380D01*
X49242Y-39380D01*
X49185Y-39366D01*
X49157Y-39352D01*
X49129Y-39323D01*
X49114Y-39281D01*
X49114Y-39210D01*
X49114Y-39508D02*
X49412Y-39508D01*
X49412Y-39579D01*
X49398Y-39621D01*
X49370Y-39650D01*
X49341Y-39664D01*
X49285Y-39678D01*
X49242Y-39678D01*
X49185Y-39664D01*
X49157Y-39650D01*
X49129Y-39621D01*
X49114Y-39579D01*
X49114Y-39508D01*
X49129Y-39919D02*
X49114Y-39891D01*
X49114Y-39834D01*
X49129Y-39806D01*
X49157Y-39792D01*
X49270Y-39792D01*
X49299Y-39806D01*
X49313Y-39834D01*
X49313Y-39891D01*
X49299Y-39919D01*
X49270Y-39934D01*
X49242Y-39934D01*
X49214Y-39792D01*
X49313Y-40061D02*
X49015Y-40061D01*
X49299Y-40061D02*
X49313Y-40089D01*
X49313Y-40146D01*
X49299Y-40174D01*
X49285Y-40189D01*
X49256Y-40203D01*
X49171Y-40203D01*
X49143Y-40189D01*
X49129Y-40174D01*
X49114Y-40146D01*
X49114Y-40089D01*
X49129Y-40061D01*
X49114Y-40374D02*
X49129Y-40345D01*
X49143Y-40331D01*
X49171Y-40317D01*
X49256Y-40317D01*
X49285Y-40331D01*
X49299Y-40345D01*
X49313Y-40374D01*
X49313Y-40416D01*
X49299Y-40444D01*
X49285Y-40459D01*
X49256Y-40473D01*
X49171Y-40473D01*
X49143Y-40459D01*
X49129Y-40444D01*
X49114Y-40416D01*
X49114Y-40374D01*
X49313Y-40558D02*
X49313Y-40672D01*
X49412Y-40601D02*
X49157Y-40601D01*
X49129Y-40615D01*
X49114Y-40644D01*
X49114Y-40672D01*
X49143Y-40771D02*
X49129Y-40785D01*
X49114Y-40771D01*
X49129Y-40757D01*
X49143Y-40771D01*
X49114Y-40771D01*
X49129Y-41041D02*
X49114Y-41012D01*
X49114Y-40956D01*
X49129Y-40927D01*
X49143Y-40913D01*
X49171Y-40899D01*
X49256Y-40899D01*
X49285Y-40913D01*
X49299Y-40927D01*
X49313Y-40956D01*
X49313Y-41012D01*
X49299Y-41041D01*
X49114Y-41211D02*
X49129Y-41182D01*
X49143Y-41168D01*
X49171Y-41154D01*
X49256Y-41154D01*
X49285Y-41168D01*
X49299Y-41182D01*
X49313Y-41211D01*
X49313Y-41253D01*
X49299Y-41281D01*
X49285Y-41296D01*
X49256Y-41310D01*
X49171Y-41310D01*
X49143Y-41296D01*
X49129Y-41281D01*
X49114Y-41253D01*
X49114Y-41211D01*
X49114Y-41438D02*
X49313Y-41438D01*
X49285Y-41438D02*
X49299Y-41452D01*
X49313Y-41481D01*
X49313Y-41523D01*
X49299Y-41551D01*
X49270Y-41566D01*
X49114Y-41566D01*
X49270Y-41566D02*
X49299Y-41580D01*
X49313Y-41608D01*
X49313Y-41651D01*
X49299Y-41679D01*
X49270Y-41693D01*
X49114Y-41693D01*
X49427Y-42275D02*
X49043Y-42019D01*
X49412Y-42658D02*
X49412Y-42714D01*
X49398Y-42743D01*
X49370Y-42771D01*
X49313Y-42785D01*
X49214Y-42785D01*
X49157Y-42771D01*
X49129Y-42743D01*
X49114Y-42714D01*
X49114Y-42658D01*
X49129Y-42629D01*
X49157Y-42601D01*
X49214Y-42587D01*
X49313Y-42587D01*
X49370Y-42601D01*
X49398Y-42629D01*
X49412Y-42658D01*
X49114Y-42913D02*
X49313Y-42913D01*
X49256Y-42913D02*
X49285Y-42927D01*
X49299Y-42941D01*
X49313Y-42970D01*
X49313Y-42998D01*
X49114Y-43225D02*
X49412Y-43225D01*
X49129Y-43225D02*
X49114Y-43196D01*
X49114Y-43140D01*
X49129Y-43111D01*
X49143Y-43097D01*
X49171Y-43083D01*
X49256Y-43083D01*
X49285Y-43097D01*
X49299Y-43111D01*
X49313Y-43140D01*
X49313Y-43196D01*
X49299Y-43225D01*
X49129Y-43480D02*
X49114Y-43452D01*
X49114Y-43395D01*
X49129Y-43367D01*
X49157Y-43353D01*
X49270Y-43353D01*
X49299Y-43367D01*
X49313Y-43395D01*
X49313Y-43452D01*
X49299Y-43480D01*
X49270Y-43495D01*
X49242Y-43495D01*
X49214Y-43353D01*
X49114Y-43622D02*
X49313Y-43622D01*
X49256Y-43622D02*
X49285Y-43636D01*
X49299Y-43650D01*
X49313Y-43679D01*
X49313Y-43707D01*
X49114Y-44033D02*
X49412Y-44033D01*
X49114Y-44203D01*
X49412Y-44203D01*
X49114Y-44388D02*
X49129Y-44359D01*
X49143Y-44345D01*
X49171Y-44331D01*
X49256Y-44331D01*
X49285Y-44345D01*
X49299Y-44359D01*
X49313Y-44388D01*
X49313Y-44430D01*
X49299Y-44458D01*
X49285Y-44473D01*
X49256Y-44487D01*
X49171Y-44487D01*
X49143Y-44473D01*
X49129Y-44458D01*
X49114Y-44430D01*
X49114Y-44388D01*
X49143Y-44615D02*
X49129Y-44629D01*
X49114Y-44615D01*
X49129Y-44601D01*
X49143Y-44615D01*
X49114Y-44615D01*
X49412Y-45126D02*
X49412Y-44984D01*
X49270Y-44970D01*
X49285Y-44984D01*
X49299Y-45012D01*
X49299Y-45083D01*
X49285Y-45112D01*
X49270Y-45126D01*
X49242Y-45140D01*
X49171Y-45140D01*
X49143Y-45126D01*
X49129Y-45112D01*
X49114Y-45083D01*
X49114Y-45012D01*
X49129Y-44984D01*
X49143Y-44970D01*
X49384Y-45254D02*
X49398Y-45268D01*
X49412Y-45296D01*
X49412Y-45367D01*
X49398Y-45396D01*
X49384Y-45410D01*
X49356Y-45424D01*
X49327Y-45424D01*
X49285Y-45410D01*
X49114Y-45240D01*
X49114Y-45424D01*
X49313Y-45680D02*
X49114Y-45680D01*
X49427Y-45609D02*
X49214Y-45538D01*
X49214Y-45722D01*
X49313Y-45964D02*
X49114Y-45964D01*
X49427Y-45893D02*
X49214Y-45822D01*
X49214Y-46006D01*
X49412Y-46092D02*
X49412Y-46290D01*
X49114Y-46163D01*
G54D12*
X61220Y-44090D02*
X61220Y-42890D01*
X61220Y-42890D02*
X58420Y-42890D01*
X58420Y-42890D02*
X58420Y-44090D01*
X61220Y-45290D02*
X61220Y-45590D01*
X61220Y-45590D02*
X60620Y-46490D01*
X60620Y-46490D02*
X59020Y-46490D01*
X59020Y-46490D02*
X58420Y-45590D01*
X58420Y-45590D02*
X58420Y-45290D01*
G54D11*
X60100Y-41950D02*
X61000Y-41950D01*
X61000Y-41950D02*
X61000Y-41300D01*
X60100Y-40600D02*
X60100Y-39950D01*
X60100Y-39950D02*
X61000Y-39950D01*
X61000Y-39950D02*
X61000Y-40600D01*
X60100Y-41300D02*
X60100Y-41950D01*
X60470Y-38790D02*
X60469Y-38799D01*
X60466Y-38809D01*
X60461Y-38817D01*
X60455Y-38825D01*
X60447Y-38831D01*
X60439Y-38836D01*
X60430Y-38838D01*
X60420Y-38839D01*
X60411Y-38839D01*
X60402Y-38836D01*
X60393Y-38831D01*
X60386Y-38825D01*
X60379Y-38818D01*
X60375Y-38809D01*
X60372Y-38800D01*
X60371Y-38790D01*
X60371Y-38781D01*
X60374Y-38772D01*
X60378Y-38763D01*
X60385Y-38756D01*
X60392Y-38749D01*
X60400Y-38745D01*
X60410Y-38742D01*
X60419Y-38741D01*
X60428Y-38741D01*
X60438Y-38744D01*
X60446Y-38748D01*
X60454Y-38754D01*
X60460Y-38762D01*
X60465Y-38770D01*
X60468Y-38779D01*
X60469Y-38789D01*
X60470Y-38790D01*
X59970Y-38790D02*
X60370Y-38790D01*
X60370Y-38790D02*
X60370Y-39390D01*
X60370Y-39390D02*
X59970Y-39390D01*
X59570Y-39390D02*
X59170Y-39390D01*
X59170Y-39390D02*
X59170Y-38790D01*
X59170Y-38790D02*
X59570Y-38790D01*
G54D13*
X59640Y-40790D02*
X59240Y-40790D01*
X59240Y-40790D02*
X59440Y-40990D01*
X59440Y-40990D02*
X59640Y-40790D01*
X59640Y-41110D02*
X59240Y-41110D01*
G54D11*
X59440Y-39950D02*
X58540Y-39950D01*
X58540Y-39950D02*
X58540Y-40600D01*
X59440Y-41300D02*
X59440Y-41950D01*
X59440Y-41950D02*
X58540Y-41950D01*
X58540Y-41950D02*
X58540Y-41300D01*
X59440Y-40600D02*
X59440Y-39950D01*
X49440Y-36290D02*
X49439Y-36299D01*
X49436Y-36309D01*
X49431Y-36317D01*
X49425Y-36325D01*
X49417Y-36331D01*
X49409Y-36336D01*
X49400Y-36338D01*
X49390Y-36339D01*
X49381Y-36339D01*
X49372Y-36336D01*
X49363Y-36331D01*
X49356Y-36325D01*
X49349Y-36318D01*
X49345Y-36309D01*
X49342Y-36300D01*
X49341Y-36290D01*
X49341Y-36281D01*
X49344Y-36272D01*
X49348Y-36263D01*
X49355Y-36256D01*
X49362Y-36249D01*
X49370Y-36245D01*
X49380Y-36242D01*
X49389Y-36241D01*
X49398Y-36241D01*
X49408Y-36244D01*
X49416Y-36248D01*
X49424Y-36254D01*
X49430Y-36262D01*
X49435Y-36270D01*
X49438Y-36279D01*
X49439Y-36289D01*
X49440Y-36290D01*
X49390Y-36740D02*
X49390Y-36340D01*
X49390Y-36340D02*
X49990Y-36340D01*
X49990Y-36340D02*
X49990Y-36740D01*
X49990Y-37140D02*
X49990Y-37540D01*
X49990Y-37540D02*
X49390Y-37540D01*
X49390Y-37540D02*
X49390Y-37140D01*
X49440Y-34560D02*
X49439Y-34569D01*
X49436Y-34579D01*
X49431Y-34587D01*
X49425Y-34595D01*
X49417Y-34601D01*
X49409Y-34606D01*
X49400Y-34608D01*
X49390Y-34609D01*
X49381Y-34609D01*
X49372Y-34606D01*
X49363Y-34601D01*
X49356Y-34595D01*
X49349Y-34588D01*
X49345Y-34579D01*
X49342Y-34570D01*
X49341Y-34560D01*
X49341Y-34551D01*
X49344Y-34542D01*
X49348Y-34533D01*
X49355Y-34526D01*
X49362Y-34519D01*
X49370Y-34515D01*
X49380Y-34512D01*
X49389Y-34511D01*
X49398Y-34511D01*
X49408Y-34514D01*
X49416Y-34518D01*
X49424Y-34524D01*
X49430Y-34532D01*
X49435Y-34540D01*
X49438Y-34549D01*
X49439Y-34559D01*
X49440Y-34560D01*
X49390Y-35010D02*
X49390Y-34610D01*
X49390Y-34610D02*
X49990Y-34610D01*
X49990Y-34610D02*
X49990Y-35010D01*
X49990Y-35410D02*
X49990Y-35810D01*
X49990Y-35810D02*
X49390Y-35810D01*
X49390Y-35810D02*
X49390Y-35410D01*
G54D13*
X59169Y-37840D02*
X59169Y-32990D01*
X59169Y-32990D02*
X61369Y-32990D01*
X61368Y-32990D02*
X61369Y-37840D01*
X61369Y-37840D02*
X59169Y-37840D01*
X51140Y-47650D02*
X51140Y-33300D01*
X51140Y-33300D02*
X57440Y-33300D01*
X57440Y-33300D02*
X57440Y-47650D01*
X46750Y-33680D02*
X48250Y-33680D01*
X48250Y-33680D02*
X48250Y-40880D01*
X48250Y-40880D02*
X46750Y-40880D01*
X46750Y-41680D02*
X48250Y-41680D01*
X48250Y-41680D02*
X48250Y-44880D01*
X48250Y-44880D02*
X46750Y-44880D01*
G54D12*
X59515Y-44752D02*
X59515Y-45076D01*
X59534Y-45114D01*
X59553Y-45133D01*
X59591Y-45152D01*
X59668Y-45152D01*
X59706Y-45133D01*
X59725Y-45114D01*
X59744Y-45076D01*
X59744Y-44752D01*
X60144Y-45152D02*
X59915Y-45152D01*
X60029Y-45152D02*
X60029Y-44752D01*
X59991Y-44809D01*
X59953Y-44847D01*
X59915Y-44866D01*
G54D11*
X60643Y-41000D02*
X60657Y-41014D01*
X60671Y-41057D01*
X60671Y-41086D01*
X60657Y-41129D01*
X60629Y-41157D01*
X60600Y-41172D01*
X60543Y-41186D01*
X60500Y-41186D01*
X60443Y-41172D01*
X60414Y-41157D01*
X60386Y-41129D01*
X60371Y-41086D01*
X60371Y-41057D01*
X60386Y-41014D01*
X60400Y-41000D01*
X60671Y-40714D02*
X60671Y-40886D01*
X60671Y-40800D02*
X60371Y-40800D01*
X60414Y-40829D01*
X60443Y-40857D01*
X60457Y-40886D01*
X59728Y-39191D02*
X59645Y-39072D01*
X59586Y-39191D02*
X59586Y-38941D01*
X59681Y-38941D01*
X59705Y-38953D01*
X59716Y-38965D01*
X59728Y-38989D01*
X59728Y-39025D01*
X59716Y-39048D01*
X59705Y-39060D01*
X59681Y-39072D01*
X59586Y-39072D01*
X59966Y-39191D02*
X59824Y-39191D01*
X59895Y-39191D02*
X59895Y-38941D01*
X59871Y-38977D01*
X59847Y-39001D01*
X59824Y-39013D01*
X59111Y-41172D02*
X58811Y-41172D01*
X58811Y-41100D01*
X58826Y-41057D01*
X58854Y-41029D01*
X58883Y-41014D01*
X58940Y-41000D01*
X58983Y-41000D01*
X59040Y-41014D01*
X59069Y-41029D01*
X59097Y-41057D01*
X59111Y-41100D01*
X59111Y-41172D01*
X59111Y-40714D02*
X59111Y-40886D01*
X59111Y-40800D02*
X58811Y-40800D01*
X58854Y-40829D01*
X58883Y-40857D01*
X58897Y-40886D01*
X49791Y-36982D02*
X49672Y-37065D01*
X49791Y-37124D02*
X49541Y-37124D01*
X49541Y-37029D01*
X49553Y-37005D01*
X49565Y-36994D01*
X49589Y-36982D01*
X49625Y-36982D01*
X49648Y-36994D01*
X49660Y-37005D01*
X49672Y-37029D01*
X49672Y-37124D01*
X49565Y-36886D02*
X49553Y-36874D01*
X49541Y-36851D01*
X49541Y-36791D01*
X49553Y-36767D01*
X49565Y-36755D01*
X49589Y-36744D01*
X49613Y-36744D01*
X49648Y-36755D01*
X49791Y-36898D01*
X49791Y-36744D01*
X49791Y-35252D02*
X49672Y-35335D01*
X49791Y-35394D02*
X49541Y-35394D01*
X49541Y-35299D01*
X49553Y-35275D01*
X49565Y-35264D01*
X49589Y-35252D01*
X49625Y-35252D01*
X49648Y-35264D01*
X49660Y-35275D01*
X49672Y-35299D01*
X49672Y-35394D01*
X49541Y-35168D02*
X49541Y-35014D01*
X49636Y-35097D01*
X49636Y-35061D01*
X49648Y-35037D01*
X49660Y-35025D01*
X49684Y-35014D01*
X49744Y-35014D01*
X49767Y-35025D01*
X49779Y-35037D01*
X49791Y-35061D01*
X49791Y-35133D01*
X49779Y-35156D01*
X49767Y-35168D01*
G54D13*
X60222Y-35706D02*
X60580Y-35706D01*
X60651Y-35730D01*
X60699Y-35778D01*
X60722Y-35849D01*
X60722Y-35897D01*
X60222Y-35516D02*
X60222Y-35206D01*
X60413Y-35373D01*
X60413Y-35301D01*
X60437Y-35254D01*
X60460Y-35230D01*
X60508Y-35206D01*
X60627Y-35206D01*
X60675Y-35230D01*
X60699Y-35254D01*
X60722Y-35301D01*
X60722Y-35444D01*
X60699Y-35492D01*
X60675Y-35516D01*
X53859Y-41602D02*
X53859Y-42007D01*
X53883Y-42055D01*
X53907Y-42079D01*
X53954Y-42102D01*
X54050Y-42102D01*
X54097Y-42079D01*
X54121Y-42055D01*
X54145Y-42007D01*
X54145Y-41602D01*
X54335Y-41602D02*
X54645Y-41602D01*
X54478Y-41793D01*
X54550Y-41793D01*
X54597Y-41817D01*
X54621Y-41840D01*
X54645Y-41888D01*
X54645Y-42007D01*
X54621Y-42055D01*
X54597Y-42079D01*
X54550Y-42102D01*
X54407Y-42102D01*
X54359Y-42079D01*
X54335Y-42055D01*
X48352Y-37446D02*
X48710Y-37446D01*
X48781Y-37470D01*
X48829Y-37518D01*
X48852Y-37589D01*
X48852Y-37637D01*
X48852Y-36946D02*
X48852Y-37232D01*
X48852Y-37089D02*
X48352Y-37089D01*
X48424Y-37137D01*
X48471Y-37184D01*
X48495Y-37232D01*
X48352Y-43446D02*
X48710Y-43446D01*
X48781Y-43470D01*
X48829Y-43518D01*
X48852Y-43589D01*
X48852Y-43637D01*
X48400Y-43232D02*
X48376Y-43208D01*
X48352Y-43160D01*
X48352Y-43041D01*
X48376Y-42994D01*
X48400Y-42970D01*
X48448Y-42946D01*
X48495Y-42946D01*
X48567Y-42970D01*
X48852Y-43256D01*
X48852Y-42946D01*
M02*
