M48
;DRILL file {Pcbnew (2011-nov-30)-testing} date Fri 20 Jul 2012 01:00:42 PM CDT
;FORMAT={-:-/ absolute / inch / decimal}
FMAT,2
INCH,TZ
T1C0.025
%
G90
G05
M72
T1
X4.859Y-4.010
X4.861Y-4.294
X4.867Y-3.608
X4.877Y-3.402
X4.877Y-3.469
X4.912Y-4.469
X4.937Y-4.092
X5.004Y-3.402
X5.095Y-4.277
X5.095Y-4.395
X5.095Y-4.513
X5.166Y-3.398
X5.253Y-4.658
X5.260Y-3.854
X5.371Y-4.658
X5.419Y-3.816
X5.430Y-3.311
X5.442Y-3.651
X5.473Y-3.931
X5.489Y-4.658
X5.607Y-4.658
X5.610Y-3.634
X5.694Y-3.398
X5.765Y-3.863
X5.765Y-4.277
X5.765Y-4.395
X5.765Y-4.513
X5.765Y-4.631
X5.801Y-3.465
X5.813Y-4.336
X5.854Y-3.575
X5.868Y-3.662
X5.871Y-3.489
X5.881Y-3.782
X5.903Y-3.261
X5.982Y-4.521
X6.022Y-4.244
T0
M30
